<svg xmlns="http://www.w3.org/2000/svg" version="1.1" xmlns:xlink="http://www.w3.org/1999/xlink" xmlns:svgjs="http://svgjs.dev/svgjs" width="1500" height="1682" viewBox="0 0 1500 1682"><g transform="matrix(1,0,0,1,-2.336338785046678,0)"><svg viewBox="0 0 321 360" data-background-color="#0d1d2c" preserveAspectRatio="xMidYMid meet" height="1682" width="1500" xmlns="http://www.w3.org/2000/svg" xmlns:xlink="http://www.w3.org/1999/xlink"><g id="tight-bounds" transform="matrix(1,0,0,1,0.5000234999999975,0)"><svg viewBox="0 0 320 360" height="360" width="320"><g><svg></svg></g><g><svg viewBox="0 0 320 360" height="360" width="320"><g><path transform="translate(-74.99272,-51.79039) scale(4.65793,4.65793)" d="M20.6 59.9l0.8 1-0.4-1.3c-0.1-0.6-0.8 0.1-0.4 0.3M21.5 59.3c0.3 0.5 0.6 1 0.6 1.5 0 0.7 0.6 1 1.1 1.2-0.7-0.8-1.1-3-1.7-2.7M59.9 16.9c1.7 0 3.3-0.2 5.1 0.2 4.4 1.1 8.1 3.3 10.6 6.4l7 11.2c0.3 2.8 0.9 5.9 0.8 9.3 0.7 0 0.6-1 1.4-1.2-0.8 2-1.2 4.5-1.4 7.4-0.5-1.6 0-4 0.1-5.3-0.7 1.1-1.1 0.3-1.1-0.2 0.1-0.8-0.3-0.7-0.6-1-1.1-1-1.8-2.1-2.6-3.8 0.5-1.3 0.6-3.2-1-4.2-0.5-0.3-1.1-0.8-1.4-1.6-0.4-1.1-1.1-2.4-0.9-4.1 0.1-0.5-1.5 1.1-2.4 0.4-3.9-2.7-7.8-5.8-12.5-8.4-2.5 0-4.3-0.9-5.2-2-0.8-1-0.2-2.3 1-2.4 0.7 0 1.5-0.2 2.1 0.2 0.1-0.4 0.5-0.9 1-0.9M50 14.6l0.2 0.1c1 0.2 1.5 1.6 2.6 1.1 0 0.7 0.1 1.4-0.1 1.9-0.3 0.8-1.2 0.8-1.9 0.8-6.7-0.4-10.6 2.4-14.7 4.8-1.1 0.7-2.3 1.2-3.2 2.1-4.3 4-9 7.7-10.1 15.1l-0.9 8.2c-0.1 0.9-1.1 1.8-0.9 2.9l0.7 4.9c-0.7-0.7-1.1 0.2-0.9 0.6 0.1 0.3 0.5 1.3 1.1 0.4 0.8 1.5 1.6 4.4 2.7 5.7 3.4 4 7.8 7.6 11.4 11.2 0.9-0.2 1.6-0.2 1.8-0.8 0.3 0.6-0.3 1.2-0.8 1.3 1.6 1 3.4 1.9 5.8 2.1 3.1 0.2 6 0.7 8.7 1.4 1.4-0.4 2.8-0.6 4.3-0.7 0.5 0 0.8-0.8 1.4-1l0.1-1c0.6 0.9 0.5-0.3 0.1-0.9 0.7 0.6 0.9 1.1 1.2 1.5 0-0.3 0.8-1.4 0.8-0.1l0.2-1.3c0.3-0.2 0.4 1.1 0.7 0.2 0.3-0.9 0.9-0.2 1.5-0.5-0.2 0.4-0.1 1.2 0.6 0.7l0.8-0.7c0.5 1.2 1.3 0.7 1.7 0.5 4.4-2.8 8.8-6.1 13-9.4l-0.1 1.3 0.5-1.6c0.5 0.5 0.9 0.1 1.1-0.2 0.6-1 1.4-2 2.7-2.9-1.6 4.3-3.5 7.7-5.9 10.5l-1 1.2c0 0.7-0.2 1.6-1 1.7-0.4 0.1-1.2-0.2-1.8 0.4-0.3 0.4 0.7 1.2-0.1 0.6-0.7-0.5-1.4 0-2.2 0.2-0.6 0.2 0.4 0.8 0.6 1.2 0.2 0.4 0.4 0.8 0.3 1.3l-1.1-1.2c-1.3 0.7-2.1 2-3.2 3-0.5 0.4-0.3 1.1-0.3 1.7-0.7 0-1.5-0.2-1.9 0.2-0.3 0.4-0.2 1-0.2 1.6-1-0.1-1.1-1.6-2-1.3-0.9 0.2-1.9 0.3-2.7 0.8 0.6 1.2-1 0.5-0.8 0.7-1.5-0.9-2.8-1.6-4.4-1-3.4-1.1-7.6-0.6-10.7-0.2 0-0.5 0.1-1-0.1-1.1-0.2 0.5-0.8 0.3-0.7 0.3-1.9-1.3-3.8-2.1-5.8-3.2-1.8 0.2-3.5-0.7-4-1.2-1.4-1.3-3-0.6-4.3-0.9-2.8-0.7-3.8-3.6-4.1-5.6-0.2-1-1-1.4-1.3-1.3-1.3-4.2-3.3-8-4.9-11.9-0.4-1-0.3-2-0.3-3.1 0.5 0.2 1 0.1 0.9-0.6-0.5-3.3-1.7-5.8-3-8.2 0.7-3.4 0.8-7.4 2.4-10.4 1.4-2.7 4-4.1 5.8-6.4 0.6-0.8 0.6-1.9 1.2-2.6 2-2 4-4.1 6.2-5.9 1-0.8 2.2 0 3.7-0.3 0.5-1.8 2.5-3.4 4.4-2.9 0.8 0.2 2.4-1.9 2.9-2.1 0.8-0.3 0.4 0.8 0.4 1.5 1.9-1.5 4.5-2.3 6.9-3.2" fill="#3e5f4a" fill-rule="nonzero" stroke="none" stroke-width="1" stroke-linecap="butt" stroke-linejoin="miter" stroke-miterlimit="10" stroke-dasharray="" stroke-dashoffset="0" font-family="none" font-weight="none" font-size="none" text-anchor="none" style="mix-blend-mode: normal" data-fill-palette-color="tertiary"></path></g><g transform="matrix(1,0,0,1,64,154.71951873438692)"><svg viewBox="0 0 192 50.56096253122615" height="50.56096253122615" width="192"><g><svg viewBox="0 0 192 50.56096253122615" height="50.56096253122615" width="192"><g><svg viewBox="0 0 289.20386096457526 76.1584665526866" height="50.56096253122615" width="192"><g transform="matrix(1,0,0,1,0,10.525518894039902)"><svg viewBox="0 0 192 55.1074287646068" height="55.1074287646068" width="192"><g id="textblocktransform"><svg viewBox="0 0 192 55.1074287646068" height="55.1074287646068" width="192" id="textblock"><g><svg viewBox="0 0 192 37.07124164001163" height="37.07124164001163" width="192"><g transform="matrix(1,0,0,1,0,0)"><svg width="192" viewBox="2.15 -32.5 171.94 33.2" height="37.07124164001163" data-palette-color="#9edaa3"><path d="M5.2 0.5L5.2 0.5Q4.6 0.5 3.98 0.3 3.35 0.1 2.93-0.65 2.5-1.4 2.5-2.95L2.5-2.95Q2.5-3.95 2.7-5.58 2.9-7.2 3.25-9.8L3.25-9.8Q3.5-11.45 3.83-14.23 4.15-17 4.15-20.05L4.15-20.05Q4.15-21.4 4.05-22.93 3.95-24.45 3.65-25.7L3.65-25.7Q3.05-25.55 2.75-25.55L2.75-25.55Q2.45-25.55 2.3-25.73 2.15-25.9 2.15-26.4L2.15-26.4Q2.15-27.4 2.38-28.43 2.6-29.45 3.1-30.15L3.1-30.15Q3.6-30.85 4.28-31.15 4.95-31.45 5.7-31.55L5.7-31.55Q6.95-31.7 8.88-31.83 10.8-31.95 12.93-32.05 15.05-32.15 16.8-32.15L16.8-32.15Q19.15-32.15 20.28-32.1 21.4-32.05 22-31.95L22-31.95Q23.3-31.75 23.3-30.55L23.3-30.55Q23.3-29.7 22.98-29.03 22.65-28.35 22.2-27.8L22.2-27.8Q21.65-27 21.03-26.68 20.4-26.35 19.4-26.45L19.4-26.45Q18.55-26.55 17.07-26.63 15.6-26.7 13.7-26.7L13.7-26.7Q12.9-26.7 11.6-26.65 10.3-26.6 8.85-26.5L8.85-26.5Q8.8-24.8 8.55-22.63 8.3-20.45 8-18.2L8-18.2Q9.35-18.3 11.25-18.38 13.15-18.45 15.15-18.5 17.15-18.55 18.7-18.55L18.7-18.55Q19.6-18.55 20-18.32 20.4-18.1 20.4-17.35L20.4-17.35Q20.4-16.5 19.98-15.53 19.55-14.55 18.88-13.85 18.2-13.15 17.45-13.2L17.45-13.2Q16.2-13.3 13.93-13.35 11.65-13.4 9.15-13.4L9.15-13.4 7.55-13.4Q7.45-12.3 7.38-11.23 7.3-10.15 7.3-9.25L7.3-9.25Q7.3-7.5 7.65-6.18 8-4.85 9-3.9L9-3.9Q9.65-3.25 9.65-2.4L9.65-2.4Q9.65-1.3 8.4-0.4 7.15 0.5 5.2 0.5ZM47.4 0.55L47.4 0.55Q45.85 0.55 44.77-0.78 43.7-2.1 42.7-5.15L42.7-5.15Q42.2-6.65 41.87-8.08 41.55-9.5 41.4-10.85L41.4-10.85Q40.75-9.85 40.22-9.53 39.7-9.2 38.7-9.2L38.7-9.2Q36.25-9.2 33.5-9.28 30.75-9.35 28.6-9.4L28.6-9.4Q28.5-8.5 28.42-7.58 28.35-6.65 28.35-5.75L28.35-5.75Q28.35-4.95 28.42-4.15 28.5-3.35 28.55-2.6L28.55-2.6Q28.7-1.2 27.45-0.35 26.2 0.5 24.35 0.5L24.35 0.5Q22.75 0.5 22.75-0.9L22.75-0.9Q22.75-1.75 23.2-3.45L23.2-3.45Q23.45-4.6 23.6-5.43 23.75-6.25 23.75-6.75L23.75-6.75Q23.75-8.15 22.9-8.65L22.9-8.65Q22.2-9.05 22.2-9.7L22.2-9.7Q22.2-10.3 22.47-11.15 22.75-12 23.2-12.73 23.65-13.45 24.05-13.75L24.05-13.75Q24.4-13.95 24.9-14.1 25.4-14.25 26.15-14.3L26.15-14.3Q28.1-19.9 30.52-23.98 32.95-28.05 35.7-30.28 38.45-32.5 41.3-32.5L41.3-32.5Q43.05-32.5 43.85-31.33 44.65-30.15 44.65-27.4L44.65-27.4 44.65-25.15Q44.65-20.1 45.4-15.85 46.15-11.6 47.25-8.95L47.25-8.95Q48.35-6.15 50.3-4.35L50.3-4.35Q50.9-3.85 51.1-3.48 51.3-3.1 51.3-2.7L51.3-2.7Q51.3-1.95 50.72-1.2 50.15-0.45 49.25 0.05 48.35 0.55 47.4 0.55ZM30.1-14.6L30.1-14.6Q32.55-14.7 34.4-14.78 36.25-14.85 37.5-14.85L37.5-14.85 41-14.85Q40.9-16.25 40.82-17.8 40.75-19.35 40.75-21.05L40.75-21.05 40.75-23.95Q40.75-25.4 40.42-25.88 40.1-26.35 39.2-26.35L39.2-26.35Q36.75-26.35 34.3-23.15 31.85-19.95 30.1-14.6ZM61.2 0.7L61.2 0.7Q59.5 0.7 58.57-0.28 57.65-1.25 57.55-4L57.55-4Q57.5-6.95 57.25-9.85 57-12.75 56.45-15.35L56.45-15.35Q55.7-19.15 54.4-22.2 53.1-25.25 50.75-27.45L50.75-27.45Q50.35-27.85 50.1-28.2 49.85-28.55 49.85-29L49.85-29Q49.85-30.05 50.95-31.03 52.05-32 53.55-32L53.55-32Q55.3-32 56.55-30.5 57.8-29 58.7-26.3L58.7-26.3Q59.75-23.55 60.35-20.3 60.95-17.05 61.17-13.68 61.4-10.3 61.4-7.15L61.4-7.15Q61.4-6.05 61.7-5.7 62-5.35 62.75-5.35L62.75-5.35Q64.4-5.35 66.02-6.35 67.65-7.35 68.97-9.08 70.3-10.8 71.1-12.9 71.9-15 71.95-17.15L71.95-17.15Q72-19.4 71.17-21.53 70.35-23.65 69.05-25.15L69.05-25.15Q68.7-25.55 68.52-25.88 68.35-26.2 68.35-26.55L68.35-26.55Q68.35-27.35 69-28.1 69.65-28.85 70.5-29.35 71.35-29.85 71.95-29.85L71.95-29.85Q73.2-29.85 74.07-28.03 74.95-26.2 75.55-23.6L75.55-23.6Q76.4-20.3 76.75-16.2 77.1-12.1 77.1-7.55L77.1-7.55Q77.1-6.3 77.35-5.85 77.6-5.4 78.45-5.4L78.45-5.4Q80.25-5.4 81.95-6.7 83.65-8 84.97-10.28 86.3-12.55 87.07-15.48 87.84-18.4 87.84-21.65L87.84-21.65Q87.84-24.1 87.47-25.63 87.09-27.15 86.75-27.8L86.75-27.8Q86.25-28.75 86.25-29.4L86.25-29.4Q86.25-30.15 86.92-30.83 87.59-31.5 88.55-31.95 89.5-32.4 90.2-32.4L90.2-32.4Q91.3-32.4 91.77-31.48 92.25-30.55 92.37-29.2 92.5-27.85 92.5-26.65L92.5-26.65Q92.5-23.2 91.77-19.43 91.05-15.65 89.7-12.08 88.35-8.5 86.47-5.63 84.59-2.75 82.25-1.03 79.9 0.7 77.2 0.7L77.2 0.7Q75.4 0.7 74.55-0.1 73.7-0.9 73.45-2.35 73.2-3.8 73.2-5.75L73.2-5.75Q73.2-6.9 73.22-7.93 73.25-8.95 73.25-9.8L73.25-9.8Q70.95-4.65 67.7-1.98 64.45 0.7 61.2 0.7ZM104.54 0.65L104.54 0.65Q100.19 0.65 97.94-1.38 95.69-3.4 95.69-7.25L95.69-7.25Q95.69-10 96.64-11.58 97.59-13.15 98.39-13.95L98.39-13.95Q99.09-14.65 99.54-14.83 99.99-15 100.29-15L100.29-15Q100.94-15 101.32-14.65 101.69-14.3 101.69-13.75L101.69-13.75Q101.69-13.4 101.57-13.13 101.44-12.85 101.29-12.65L101.29-12.65Q100.24-11.3 100.24-9.3L100.24-9.3Q100.24-7 101.84-5.95 103.44-4.9 105.99-4.9L105.99-4.9Q109.54-4.9 111.14-6.88 112.74-8.85 112.99-12.2L112.99-12.2Q113.09-13.4 113.12-14.95 113.14-16.5 113.14-17.9L113.14-17.9Q113.04-23.15 112.29-26.65L112.29-26.65Q111.04-26.75 109.59-26.8 108.14-26.85 106.84-26.85L106.84-26.85Q102.34-26.85 99.79-26.2L99.79-26.2Q98.94-26 98.39-26L98.39-26Q97.99-26 97.82-26.18 97.64-26.35 97.64-27L97.64-27Q97.64-27.9 97.94-28.75 98.24-29.6 98.74-30.25L98.74-30.25Q99.29-31 100.04-31.33 100.79-31.65 101.89-31.75L101.89-31.75Q103.59-31.9 105.87-32.02 108.14-32.15 111.04-32.15L111.04-32.15Q113.44-32.15 114.92-32.05 116.39-31.95 116.99-31.85L116.99-31.85Q117.69-31.75 117.99-31.4 118.29-31.05 118.29-30.25L118.29-30.25Q118.29-29.55 118.07-28.8 117.84-28.05 117.44-27.5L117.44-27.5Q117.54-20.8 117.22-15.38 116.89-9.95 115.24-6.2L115.24-6.2Q112.14 0.65 104.54 0.65ZM133.99 0.65L133.99 0.65Q128.74 0.65 126.14-2.13 123.54-4.9 123.54-10.85L123.54-10.85Q123.54-11.85 123.62-12.95 123.69-14.05 123.79-15.1L123.79-15.1Q123.89-16.1 123.94-17.1 123.99-18.1 123.99-18.9L123.99-18.9Q123.99-21.9 123.74-24.1 123.49-26.3 122.24-28.3L122.24-28.3Q121.84-28.95 121.84-29.35L121.84-29.35Q121.84-30 122.57-30.63 123.29-31.25 124.29-31.7 125.29-32.15 126.19-32.15L126.19-32.15Q127.39-32.15 127.92-31.35 128.44-30.55 128.59-29.38 128.74-28.2 128.74-27L128.74-27Q128.74-25.75 128.62-24.25 128.49-22.75 128.24-21L128.24-21Q128.04-19.1 127.87-17.03 127.69-14.95 127.69-12.85L127.69-12.85Q127.69-9.95 128.72-8.22 129.74-6.5 131.52-5.73 133.29-4.95 135.49-4.95L135.49-4.95Q139.34-4.95 141.29-6.93 143.24-8.9 143.99-12.1L143.99-12.1Q144.34-13.55 144.54-15.43 144.74-17.3 144.74-19.25L144.74-19.25Q144.74-21.7 144.42-23.95 144.09-26.2 143.14-27.9L143.14-27.9Q142.94-28.3 142.79-28.6 142.64-28.9 142.64-29.25L142.64-29.25Q142.64-29.95 143.24-30.63 143.84-31.3 144.74-31.73 145.64-32.15 146.59-32.15L146.59-32.15Q148.19-32.15 148.74-30.8 149.29-29.45 149.29-27.65L149.29-27.65Q149.29-26.55 149.12-24.45 148.94-22.35 148.64-19.95 148.34-17.55 148.04-15.43 147.74-13.3 147.49-12.15L147.49-12.15Q146.24-6.2 143.09-2.78 139.94 0.65 133.99 0.65ZM162.89 0.65L162.89 0.65Q159.49 0.65 157.64-0.1 155.79-0.85 155.09-2.2 154.39-3.55 154.39-5.4L154.39-5.4Q154.39-6.3 154.54-7.43 154.69-8.55 154.89-10L154.89-10Q155.79-15.5 155.79-19.75L155.79-19.75Q155.79-22.55 155.56-24.53 155.34-26.5 154.24-28.3L154.24-28.3Q154.04-28.6 153.89-28.93 153.74-29.25 153.74-29.45L153.74-29.45Q153.74-30.05 154.44-30.7 155.14-31.35 156.14-31.8 157.14-32.25 158.04-32.25L158.04-32.25Q159.74-32.25 160.16-30.9 160.59-29.55 160.59-27.05L160.59-27.05Q160.59-26.1 160.39-24.03 160.19-21.95 159.79-18.75L159.79-18.75Q159.39-15.65 159.19-13.4 158.99-11.15 158.99-9.8L158.99-9.8Q158.99-7.8 159.46-6.78 159.94-5.75 161.04-5.35L161.04-5.35Q162.14-4.95 164.14-4.95L164.14-4.95Q166.29-4.95 168.24-5.33 170.19-5.7 172.04-6.5L172.04-6.5Q172.29-6.6 172.49-6.65 172.69-6.7 172.84-6.7L172.84-6.7Q173.29-6.7 173.69-6.15 174.09-5.6 174.09-4.6L174.09-4.6Q174.09-2.4 171.69-1.15L171.69-1.15Q168.49 0.65 162.89 0.65Z" opacity="1" transform="matrix(1,0,0,1,0,0)" fill="#9edaa3" class="wordmark-text-0" data-fill-palette-color="primary" id="text-0"></path></svg></g></svg></g><g transform="matrix(1,0,0,1,0,45.822872081419014)"><svg viewBox="0 0 192 9.28455668318779" height="9.28455668318779" width="192"><g transform="matrix(1,0,0,1,0,0)"><svg width="192" viewBox="1 -35.01 930.86 45.019999999999996" height="9.28455668318779" data-palette-color="#a1b18e"><path d="M22.19-35.01L13.21-16.75 13.21 0 10.06 0 10.06-16.7 1-35.01 4.39-35.01 11.6-20.46 18.8-35.01 22.19-35.01ZM40.89-6.86L40.89-6.86Q40.89-5.35 40.32-4 39.74-2.66 38.74-1.66 37.74-0.66 36.4-0.09 35.06 0.49 33.54 0.49L33.54 0.49 31.54 0.49Q30.03 0.49 28.68-0.09 27.34-0.66 26.34-1.66 25.34-2.66 24.77-4 24.19-5.35 24.19-6.86L24.19-6.86 24.19-18.14Q24.19-19.65 24.77-21 25.34-22.34 26.34-23.34 27.34-24.34 28.68-24.91 30.03-25.49 31.54-25.49L31.54-25.49 33.54-25.49Q35.06-25.49 36.4-24.91 37.74-24.34 38.74-23.34 39.74-22.34 40.32-21 40.89-19.65 40.89-18.14L40.89-18.14 40.89-6.86ZM37.89-6.69L37.89-18.31Q37.89-19.21 37.55-20.01 37.2-20.8 36.62-21.39 36.03-21.97 35.24-22.31 34.45-22.66 33.54-22.66L33.54-22.66 31.54-22.66Q30.64-22.66 29.84-22.31 29.05-21.97 28.46-21.39 27.88-20.8 27.54-20.01 27.19-19.21 27.19-18.31L27.19-18.31 27.19-6.69Q27.19-5.79 27.54-4.99 27.88-4.2 28.46-3.61 29.05-3.03 29.84-2.69 30.64-2.34 31.54-2.34L31.54-2.34 33.54-2.34Q34.45-2.34 35.24-2.69 36.03-3.03 36.62-3.61 37.2-4.2 37.55-4.99 37.89-5.79 37.89-6.69L37.89-6.69ZM63.59 0L62.59 0 60.93-2.54Q59.91-1.15 58.37-0.33 56.83 0.49 55 0.49L55 0.49 54.24 0.49Q52.73 0.49 51.39-0.09 50.04-0.66 49.04-1.66 48.04-2.66 47.47-4 46.89-5.35 46.89-6.86L46.89-6.86 46.89-25 49.9-25 49.9-6.69Q49.9-5.79 50.24-4.99 50.58-4.2 51.17-3.61 51.75-3.03 52.55-2.69 53.34-2.34 54.24-2.34L54.24-2.34 56.25-2.34Q57.15-2.34 57.94-2.69 58.74-3.03 59.32-3.61 59.91-4.2 60.25-4.99 60.59-5.79 60.59-6.69L60.59-6.69 60.59-25 63.59-25 63.59 0ZM110.49-25L102.14 0 100.5 0 94.64-18.85 94.55-20.14 94.45-18.85 88.59 0 86.93 0 78.58-25 81.63-25 87.59-6.1 87.69-4.81 87.78-6.1 93.64-25 95.45-25 101.28-6.1 101.38-4.81 101.48-6.1 107.44-25 110.49-25ZM118.25-31.01L114.76-31.01 114.76-35.01 118.25-35.01 118.25-31.01ZM118.01 0L115 0 115-25 118.01-25 118.01 0ZM129.01 0L126.01 0 126.01-35.01 129.01-35.01 129.01 0ZM140.02 0L137.02 0 137.02-35.01 140.02-35.01 140.02 0ZM175.47 3.15L175.47 3.15Q175.47 4.66 174.89 5.93 174.32 7.2 173.32 8.11 172.32 9.01 170.97 9.51 169.63 10.01 168.12 10.01L168.12 10.01 166.87 10.01Q165.36 10.01 164.02 9.51 162.67 9.01 161.67 8.11 160.67 7.2 160.1 5.93 159.52 4.66 159.52 3.15L159.52 3.15 159.52 3.05Q159.52 1.59 160.06 0.37 160.6-0.85 161.53-1.76L161.53-1.76Q160.35-2.47 159.66-3.67 158.96-4.88 158.96-6.35L158.96-6.35Q158.96-7.67 159.52-8.8 160.08-9.94 161.06-10.64L161.06-10.64Q159.89-11.67 159.21-13.11 158.52-14.55 158.52-16.26L158.52-16.26 158.52-18.14Q158.52-19.65 159.1-21 159.67-22.34 160.67-23.34 161.67-24.34 163.01-24.91 164.36-25.49 165.87-25.49L165.87-25.49 167.12-25.49Q168.95-25.49 170.5-24.67 172.05-23.85 173.07-22.46L173.07-22.46 174.71-25 175.71-25 175.71-16.26Q175.71-14.75 175.14-13.4 174.56-12.06 173.56-11.06 172.56-10.06 171.22-9.48 169.87-8.91 168.36-8.91L168.36-8.91 164.02-8.91Q163.5-8.91 163.04-8.7 162.58-8.5 162.22-8.15 161.87-7.81 161.67-7.34 161.48-6.86 161.48-6.35L161.48-6.35Q161.48-5.83 161.67-5.37 161.87-4.91 162.22-4.55 162.58-4.2 163.04-4 163.5-3.81 164.02-3.81L164.02-3.81 168.12-3.81Q169.63-3.81 170.97-3.31 172.32-2.81 173.32-1.9 174.32-1 174.89 0.27 175.47 1.54 175.47 3.05L175.47 3.05 175.47 3.15ZM172.73-16.09L172.73-18.31Q172.73-19.21 172.39-20.01 172.05-20.8 171.45-21.39 170.85-21.97 170.06-22.31 169.26-22.66 168.36-22.66L168.36-22.66 165.87-22.66Q164.97-22.66 164.17-22.31 163.38-21.97 162.79-21.39 162.21-20.8 161.87-20.01 161.53-19.21 161.53-18.31L161.53-18.31 161.53-16.09Q161.53-15.19 161.87-14.39 162.21-13.6 162.79-13.01 163.38-12.43 164.17-12.08 164.97-11.74 165.87-11.74L165.87-11.74 168.36-11.74Q169.26-11.74 170.06-12.08 170.85-12.43 171.45-13.01 172.05-13.6 172.39-14.39 172.73-15.19 172.73-16.09L172.73-16.09ZM172.61 3.3L172.61 2.91Q172.61 2 172.27 1.28 171.93 0.56 171.34 0.07 170.75-0.42 169.96-0.68 169.17-0.95 168.26-0.95L168.26-0.95 166.73-0.95Q165.82-0.95 165.03-0.68 164.24-0.42 163.65 0.07 163.06 0.56 162.72 1.28 162.38 2 162.38 2.91L162.38 2.91 162.38 3.3Q162.38 4.2 162.72 4.91 163.06 5.62 163.65 6.12 164.24 6.62 165.03 6.88 165.82 7.15 166.73 7.15L166.73 7.15 168.26 7.15Q169.17 7.15 169.96 6.88 170.75 6.62 171.34 6.12 171.93 5.62 172.27 4.91 172.61 4.2 172.61 3.3L172.61 3.3ZM197.92-6.86L197.92-6.86Q197.92-5.35 197.35-4 196.78-2.66 195.78-1.66 194.77-0.66 193.43-0.09 192.09 0.49 190.58 0.49L190.58 0.49 188.57 0.49Q187.06 0.49 185.72-0.09 184.37-0.66 183.37-1.66 182.37-2.66 181.8-4 181.23-5.35 181.23-6.86L181.23-6.86 181.23-18.14Q181.23-19.65 181.8-21 182.37-22.34 183.37-23.34 184.37-24.34 185.72-24.91 187.06-25.49 188.57-25.49L188.57-25.49 190.58-25.49Q192.09-25.49 193.43-24.91 194.77-24.34 195.78-23.34 196.78-22.34 197.35-21 197.92-19.65 197.92-18.14L197.92-18.14 197.92-12.26 184.23-12.26 184.23-6.69Q184.23-5.79 184.57-4.99 184.91-4.2 185.5-3.61 186.08-3.03 186.88-2.69 187.67-2.34 188.57-2.34L188.57-2.34 190.58-2.34Q191.48-2.34 192.27-2.69 193.07-3.03 193.65-3.61 194.24-4.2 194.58-4.99 194.92-5.79 194.92-6.69L194.92-6.69 194.92-8.35 197.92-7.86 197.92-6.86ZM194.92-14.6L194.92-18.31Q194.92-19.21 194.58-20.01 194.24-20.8 193.65-21.39 193.07-21.97 192.27-22.31 191.48-22.66 190.58-22.66L190.58-22.66 188.57-22.66Q187.67-22.66 186.88-22.31 186.08-21.97 185.5-21.39 184.91-20.8 184.57-20.01 184.23-19.21 184.23-18.31L184.23-18.31 184.23-14.6 194.92-14.6ZM215.77 0L213.03 0Q211.67 0 210.46-0.51 209.25-1.03 208.36-1.93 207.47-2.83 206.94-4.03 206.42-5.22 206.42-6.59L206.42-6.59 206.42-22.14 201.93-22.14 201.93-25 206.42-25 206.42-31.01 209.42-31.49 209.42-25 215.77-25 215.77-22.14 209.42-22.14 209.42-6.45Q209.42-5.69 209.7-5.04 209.98-4.39 210.47-3.91 210.96-3.42 211.62-3.14 212.28-2.86 213.03-2.86L213.03-2.86 215.77-2.86 215.77 0ZM249.97-6.35L249.97-6.35Q249.97-4.83 249.36-3.58 248.75-2.32 247.7-1.42 246.65-0.51 245.27-0.01 243.89 0.49 242.37 0.49L242.37 0.49 240.37 0.49Q238.86 0.49 237.48-0.09 236.1-0.66 235.06-1.66 234.03-2.66 233.4-4 232.78-5.35 232.78-6.86L232.78-6.86 232.78-7.86 235.78-8.35 235.78-6.69Q235.78-5.79 236.16-4.99 236.54-4.2 237.17-3.61 237.81-3.03 238.64-2.69 239.47-2.34 240.37-2.34L240.37-2.34 242.37-2.34Q243.28-2.34 244.11-2.61 244.94-2.88 245.59-3.38 246.23-3.88 246.61-4.59 246.99-5.3 246.99-6.2L246.99-6.2Q246.99-7.54 246.4-8.4 245.82-9.25 244.85-9.83 243.89-10.4 242.66-10.78 241.42-11.16 240.13-11.54 238.83-11.91 237.6-12.4 236.37-12.89 235.4-13.68 234.44-14.48 233.85-15.67 233.27-16.87 233.27-18.65L233.27-18.65Q233.27-20.17 233.85-21.42 234.44-22.68 235.44-23.58 236.44-24.49 237.77-24.99 239.1-25.49 240.62-25.49L240.62-25.49 242.37-25.49Q243.89-25.49 245.23-24.91 246.57-24.34 247.57-23.34 248.58-22.34 249.15-21 249.72-19.65 249.72-18.14L249.72-18.14 249.72-18.04 246.72-17.55 246.72-18.31Q246.72-19.21 246.38-20.01 246.04-20.8 245.45-21.39 244.86-21.97 244.07-22.31 243.28-22.66 242.37-22.66L242.37-22.66 240.62-22.66Q239.71-22.66 238.92-22.39 238.13-22.12 237.54-21.62 236.95-21.12 236.61-20.41 236.27-19.7 236.27-18.8L236.27-18.8Q236.27-17.5 236.86-16.69 237.44-15.87 238.41-15.31 239.37-14.75 240.6-14.37 241.84-13.99 243.12-13.59 244.4-13.18 245.63-12.67 246.87-12.16 247.83-11.35 248.8-10.55 249.38-9.34 249.97-8.13 249.97-6.35ZM272.43-6.86L272.43-6.86Q272.43-5.35 271.85-4 271.28-2.66 270.28-1.66 269.28-0.66 267.93-0.09 266.59 0.49 265.08 0.49L265.08 0.49 263.08 0.49Q261.56 0.49 260.22-0.09 258.88-0.66 257.88-1.66 256.87-2.66 256.3-4 255.73-5.35 255.73-6.86L255.73-6.86 255.73-18.14Q255.73-19.65 256.3-21 256.87-22.34 257.88-23.34 258.88-24.34 260.22-24.91 261.56-25.49 263.08-25.49L263.08-25.49 265.08-25.49Q266.59-25.49 267.93-24.91 269.28-24.34 270.28-23.34 271.28-22.34 271.85-21 272.43-19.65 272.43-18.14L272.43-18.14 272.43-6.86ZM269.42-6.69L269.42-18.31Q269.42-19.21 269.08-20.01 268.74-20.8 268.15-21.39 267.57-21.97 266.77-22.31 265.98-22.66 265.08-22.66L265.08-22.66 263.08-22.66Q262.17-22.66 261.38-22.31 260.59-21.97 260-21.39 259.41-20.8 259.07-20.01 258.73-19.21 258.73-18.31L258.73-18.31 258.73-6.69Q258.73-5.79 259.07-4.99 259.41-4.2 260-3.61 260.59-3.03 261.38-2.69 262.17-2.34 263.08-2.34L263.08-2.34 265.08-2.34Q265.98-2.34 266.77-2.69 267.57-3.03 268.15-3.61 268.74-4.2 269.08-4.99 269.42-5.79 269.42-6.69L269.42-6.69ZM307.82 0L304.82 0 304.82-18.31Q304.82-19.21 304.48-20.01 304.14-20.8 303.55-21.39 302.97-21.97 302.17-22.31 301.38-22.66 300.48-22.66L300.48-22.66 298.99-22.66Q298.08-22.66 297.29-22.31 296.5-21.97 295.9-21.39 295.3-20.8 294.96-20.01 294.62-19.21 294.62-18.31L294.62-18.31 294.62 0 291.64 0 291.64-18.31Q291.64-19.21 291.3-20.01 290.95-20.8 290.36-21.39 289.76-21.97 288.96-22.31 288.17-22.66 287.27-22.66L287.27-22.66 285.78-22.66Q284.87-22.66 284.08-22.31 283.29-21.97 282.7-21.39 282.12-20.8 281.77-20.01 281.43-19.21 281.43-18.31L281.43-18.31 281.43 0 278.43 0 278.43-25 279.43-25 281.07-22.46Q282.09-23.85 283.64-24.67 285.19-25.49 287.02-25.49L287.02-25.49 287.27-25.49Q289.39-25.49 291.1-24.44 292.81-23.39 293.74-21.66L293.74-21.66Q294.2-22.51 294.88-23.22 295.57-23.93 296.4-24.43 297.23-24.93 298.2-25.21 299.18-25.49 300.23-25.49L300.23-25.49 300.48-25.49Q301.99-25.49 303.33-24.91 304.67-24.34 305.68-23.34 306.68-22.34 307.25-21 307.82-19.65 307.82-18.14L307.82-18.14 307.82 0ZM330.53-6.86L330.53-6.86Q330.53-5.35 329.95-4 329.38-2.66 328.38-1.66 327.38-0.66 326.03-0.09 324.69 0.49 323.18 0.49L323.18 0.49 321.18 0.49Q319.66 0.49 318.32-0.09 316.98-0.66 315.98-1.66 314.97-2.66 314.4-4 313.83-5.35 313.83-6.86L313.83-6.86 313.83-18.14Q313.83-19.65 314.4-21 314.97-22.34 315.98-23.34 316.98-24.34 318.32-24.91 319.66-25.49 321.18-25.49L321.18-25.49 323.18-25.49Q324.69-25.49 326.03-24.91 327.38-24.34 328.38-23.34 329.38-22.34 329.95-21 330.53-19.65 330.53-18.14L330.53-18.14 330.53-12.26 316.83-12.26 316.83-6.69Q316.83-5.79 317.17-4.99 317.51-4.2 318.1-3.61 318.69-3.03 319.48-2.69 320.27-2.34 321.18-2.34L321.18-2.34 323.18-2.34Q324.08-2.34 324.87-2.69 325.67-3.03 326.25-3.61 326.84-4.2 327.18-4.99 327.52-5.79 327.52-6.69L327.52-6.69 327.52-8.35 330.53-7.86 330.53-6.86ZM327.52-14.6L327.52-18.31Q327.52-19.21 327.18-20.01 326.84-20.8 326.25-21.39 325.67-21.97 324.87-22.31 324.08-22.66 323.18-22.66L323.18-22.66 321.18-22.66Q320.27-22.66 319.48-22.31 318.69-21.97 318.1-21.39 317.51-20.8 317.17-20.01 316.83-19.21 316.83-18.31L316.83-18.31 316.83-14.6 327.52-14.6ZM348.37 0L345.64 0Q344.27 0 343.06-0.51 341.85-1.03 340.96-1.93 340.07-2.83 339.54-4.03 339.02-5.22 339.02-6.59L339.02-6.59 339.02-22.14 334.53-22.14 334.53-25 339.02-25 339.02-31.01 342.02-31.49 342.02-25 348.37-25 348.37-22.14 342.02-22.14 342.02-6.45Q342.02-5.69 342.3-5.04 342.58-4.39 343.07-3.91 343.56-3.42 344.22-3.14 344.88-2.86 345.64-2.86L345.64-2.86 348.37-2.86 348.37 0ZM370.58 0L367.58 0 367.58-18.31Q367.58-19.21 367.24-20.01 366.9-20.8 366.31-21.39 365.73-21.97 364.93-22.31 364.14-22.66 363.24-22.66L363.24-22.66 361.23-22.66Q360.33-22.66 359.54-22.31 358.74-21.97 358.16-21.39 357.57-20.8 357.23-20.01 356.89-19.21 356.89-18.31L356.89-18.31 356.89 0 353.89 0 353.89-35.01 356.89-35.01 356.89-22.9Q357.91-24.12 359.35-24.8 360.79-25.49 362.48-25.49L362.48-25.49 363.24-25.49Q364.75-25.49 366.09-24.91 367.44-24.34 368.44-23.34 369.44-22.34 370.01-21 370.58-19.65 370.58-18.14L370.58-18.14 370.58 0ZM380.84-31.01L377.35-31.01 377.35-35.01 380.84-35.01 380.84-31.01ZM380.59 0L377.59 0 377.59-25 380.59-25 380.59 0ZM404.3 0L401.29 0 401.29-18.31Q401.29-19.21 400.95-20.01 400.61-20.8 400.02-21.39 399.44-21.97 398.64-22.31 397.85-22.66 396.95-22.66L396.95-22.66 394.95-22.66Q394.04-22.66 393.25-22.31 392.45-21.97 391.87-21.39 391.28-20.8 390.94-20.01 390.6-19.21 390.6-18.31L390.6-18.31 390.6 0 387.6 0 387.6-25 388.6-25 390.23-22.46Q391.26-23.85 392.81-24.67 394.36-25.49 396.19-25.49L396.19-25.49 396.95-25.49Q398.46-25.49 399.8-24.91 401.15-24.34 402.15-23.34 403.15-22.34 403.72-21 404.3-19.65 404.3-18.14L404.3-18.14 404.3 0ZM427.24 3.15L427.24 3.15Q427.24 4.66 426.67 5.93 426.09 7.2 425.09 8.11 424.09 9.01 422.75 9.51 421.41 10.01 419.89 10.01L419.89 10.01 418.65 10.01Q417.14 10.01 415.79 9.51 414.45 9.01 413.45 8.11 412.45 7.2 411.87 5.93 411.3 4.66 411.3 3.15L411.3 3.15 411.3 3.05Q411.3 1.59 411.84 0.37 412.37-0.85 413.3-1.76L413.3-1.76Q412.13-2.47 411.43-3.67 410.74-4.88 410.74-6.35L410.74-6.35Q410.74-7.67 411.3-8.8 411.86-9.94 412.84-10.64L412.84-10.64Q411.67-11.67 410.98-13.11 410.3-14.55 410.3-16.26L410.3-16.26 410.3-18.14Q410.3-19.65 410.87-21 411.45-22.34 412.45-23.34 413.45-24.34 414.79-24.91 416.13-25.49 417.65-25.49L417.65-25.49 418.89-25.49Q420.72-25.49 422.27-24.67 423.82-23.85 424.85-22.46L424.85-22.46 426.49-25 427.49-25 427.49-16.26Q427.49-14.75 426.91-13.4 426.34-12.06 425.34-11.06 424.34-10.06 422.99-9.48 421.65-8.91 420.14-8.91L420.14-8.91 415.79-8.91Q415.28-8.91 414.82-8.7 414.35-8.5 414-8.15 413.64-7.81 413.45-7.34 413.25-6.86 413.25-6.35L413.25-6.35Q413.25-5.83 413.45-5.37 413.64-4.91 414-4.55 414.35-4.2 414.82-4 415.28-3.81 415.79-3.81L415.79-3.81 419.89-3.81Q421.41-3.81 422.75-3.31 424.09-2.81 425.09-1.9 426.09-1 426.67 0.27 427.24 1.54 427.24 3.05L427.24 3.05 427.24 3.15ZM424.51-16.09L424.51-18.31Q424.51-19.21 424.17-20.01 423.82-20.8 423.23-21.39 422.63-21.97 421.83-22.31 421.04-22.66 420.14-22.66L420.14-22.66 417.65-22.66Q416.74-22.66 415.95-22.31 415.16-21.97 414.57-21.39 413.99-20.8 413.64-20.01 413.3-19.21 413.3-18.31L413.3-18.31 413.3-16.09Q413.3-15.19 413.64-14.39 413.99-13.6 414.57-13.01 415.16-12.43 415.95-12.08 416.74-11.74 417.65-11.74L417.65-11.74 420.14-11.74Q421.04-11.74 421.83-12.08 422.63-12.43 423.23-13.01 423.82-13.6 424.17-14.39 424.51-15.19 424.51-16.09L424.51-16.09ZM424.39 3.3L424.39 2.91Q424.39 2 424.04 1.28 423.7 0.56 423.12 0.07 422.53-0.42 421.74-0.68 420.94-0.95 420.04-0.95L420.04-0.95 418.5-0.95Q417.6-0.95 416.81-0.68 416.01-0.42 415.43 0.07 414.84 0.56 414.5 1.28 414.16 2 414.16 2.91L414.16 2.91 414.16 3.3Q414.16 4.2 414.5 4.91 414.84 5.62 415.43 6.12 416.01 6.62 416.81 6.88 417.6 7.15 418.5 7.15L418.5 7.15 420.04 7.15Q420.94 7.15 421.74 6.88 422.53 6.62 423.12 6.12 423.7 5.62 424.04 4.91 424.39 4.2 424.39 3.3L424.39 3.3ZM461.2-6.86L461.2-6.86Q461.2-5.35 460.62-4 460.05-2.66 459.05-1.66 458.05-0.66 456.71-0.09 455.36 0.49 453.85 0.49L453.85 0.49 451.85 0.49Q450.33 0.49 448.99-0.09 447.65-0.66 446.65-1.66 445.65-2.66 445.07-4 444.5-5.35 444.5-6.86L444.5-6.86 444.5-35.01 447.5-35.01 447.5-22.9Q448.53-24.12 449.97-24.8 451.41-25.49 453.09-25.49L453.09-25.49 453.85-25.49Q455.36-25.49 456.71-24.91 458.05-24.34 459.05-23.34 460.05-22.34 460.62-21 461.2-19.65 461.2-18.14L461.2-18.14 461.2-6.86ZM458.19-6.69L458.19-18.31Q458.19-19.21 457.85-20.01 457.51-20.8 456.92-21.39 456.34-21.97 455.55-22.31 454.75-22.66 453.85-22.66L453.85-22.66 451.85-22.66Q450.94-22.66 450.15-22.31 449.36-21.97 448.77-21.39 448.18-20.8 447.84-20.01 447.5-19.21 447.5-18.31L447.5-18.31 447.5-6.69Q447.5-5.79 447.84-4.99 448.18-4.2 448.77-3.61 449.36-3.03 450.15-2.69 450.94-2.34 451.85-2.34L451.85-2.34 453.85-2.34Q454.75-2.34 455.55-2.69 456.34-3.03 456.92-3.61 457.51-4.2 457.85-4.99 458.19-5.79 458.19-6.69L458.19-6.69ZM483.9-6.86L483.9-6.86Q483.9-5.35 483.33-4 482.75-2.66 481.75-1.66 480.75-0.66 479.41-0.09 478.07 0.49 476.55 0.49L476.55 0.49 474.55 0.49Q473.04 0.49 471.69-0.09 470.35-0.66 469.35-1.66 468.35-2.66 467.77-4 467.2-5.35 467.2-6.86L467.2-6.86 467.2-18.14Q467.2-19.65 467.77-21 468.35-22.34 469.35-23.34 470.35-24.34 471.69-24.91 473.04-25.49 474.55-25.49L474.55-25.49 476.55-25.49Q478.07-25.49 479.41-24.91 480.75-24.34 481.75-23.34 482.75-22.34 483.33-21 483.9-19.65 483.9-18.14L483.9-18.14 483.9-12.26 470.2-12.26 470.2-6.69Q470.2-5.79 470.55-4.99 470.89-4.2 471.47-3.61 472.06-3.03 472.85-2.69 473.65-2.34 474.55-2.34L474.55-2.34 476.55-2.34Q477.45-2.34 478.25-2.69 479.04-3.03 479.63-3.61 480.21-4.2 480.56-4.99 480.9-5.79 480.9-6.69L480.9-6.69 480.9-8.35 483.9-7.86 483.9-6.86ZM480.9-14.6L480.9-18.31Q480.9-19.21 480.56-20.01 480.21-20.8 479.63-21.39 479.04-21.97 478.25-22.31 477.45-22.66 476.55-22.66L476.55-22.66 474.55-22.66Q473.65-22.66 472.85-22.31 472.06-21.97 471.47-21.39 470.89-20.8 470.55-20.01 470.2-19.21 470.2-18.31L470.2-18.31 470.2-14.6 480.9-14.6ZM501.74 0L499.01 0Q497.64 0 496.43-0.51 495.23-1.03 494.33-1.93 493.44-2.83 492.92-4.03 492.39-5.22 492.39-6.59L492.39-6.59 492.39-22.14 487.9-22.14 487.9-25 492.39-25 492.39-31.01 495.4-31.49 495.4-25 501.74-25 501.74-22.14 495.4-22.14 495.4-6.45Q495.4-5.69 495.68-5.04 495.96-4.39 496.45-3.91 496.93-3.42 497.59-3.14 498.25-2.86 499.01-2.86L499.01-2.86 501.74-2.86 501.74 0ZM519.1 0L516.37 0Q515 0 513.79-0.51 512.58-1.03 511.69-1.93 510.8-2.83 510.27-4.03 509.75-5.22 509.75-6.59L509.75-6.59 509.75-22.14 505.26-22.14 505.26-25 509.75-25 509.75-31.01 512.75-31.49 512.75-25 519.1-25 519.1-22.14 512.75-22.14 512.75-6.45Q512.75-5.69 513.03-5.04 513.31-4.39 513.8-3.91 514.29-3.42 514.95-3.14 515.61-2.86 516.37-2.86L516.37-2.86 519.1-2.86 519.1 0ZM541.31-6.86L541.31-6.86Q541.31-5.35 540.74-4 540.17-2.66 539.17-1.66 538.16-0.66 536.82-0.09 535.48 0.49 533.97 0.49L533.97 0.49 531.96 0.49Q530.45 0.49 529.11-0.09 527.76-0.66 526.76-1.66 525.76-2.66 525.19-4 524.62-5.35 524.62-6.86L524.62-6.86 524.62-18.14Q524.62-19.65 525.19-21 525.76-22.34 526.76-23.34 527.76-24.34 529.11-24.91 530.45-25.49 531.96-25.49L531.96-25.49 533.97-25.49Q535.48-25.49 536.82-24.91 538.16-24.34 539.17-23.34 540.17-22.34 540.74-21 541.31-19.65 541.31-18.14L541.31-18.14 541.31-12.26 527.62-12.26 527.62-6.69Q527.62-5.79 527.96-4.99 528.3-4.2 528.89-3.61 529.47-3.03 530.27-2.69 531.06-2.34 531.96-2.34L531.96-2.34 533.97-2.34Q534.87-2.34 535.66-2.69 536.46-3.03 537.04-3.61 537.63-4.2 537.97-4.99 538.31-5.79 538.31-6.69L538.31-6.69 538.31-8.35 541.31-7.86 541.31-6.86ZM538.31-14.6L538.31-18.31Q538.31-19.21 537.97-20.01 537.63-20.8 537.04-21.39 536.46-21.97 535.66-22.31 534.87-22.66 533.97-22.66L533.97-22.66 531.96-22.66Q531.06-22.66 530.27-22.31 529.47-21.97 528.89-21.39 528.3-20.8 527.96-20.01 527.62-19.21 527.62-18.31L527.62-18.31 527.62-14.6 538.31-14.6ZM557.67-22.14L554.67-22.14Q553.76-22.14 552.97-21.8 552.18-21.46 551.59-20.87 551-20.29 550.66-19.49 550.32-18.7 550.32-17.8L550.32-17.8 550.32 0 547.32 0 547.32-25 548.32-25 549.95-22.46Q550.98-23.85 552.53-24.67 554.08-25.49 555.91-25.49L555.91-25.49 557.67-25.49 557.67-22.14ZM585.01 0L582.27 0Q580.91 0 579.7-0.51 578.49-1.03 577.6-1.93 576.71-2.83 576.18-4.03 575.66-5.22 575.66-6.59L575.66-6.59 575.66-22.14 571.17-22.14 571.17-25 575.66-25 575.66-31.01 578.66-31.49 578.66-25 585.01-25 585.01-22.14 578.66-22.14 578.66-6.45Q578.66-5.69 578.94-5.04 579.22-4.39 579.71-3.91 580.2-3.42 580.86-3.14 581.52-2.86 582.27-2.86L582.27-2.86 585.01-2.86 585.01 0ZM607.22 0L604.22 0 604.22-18.31Q604.22-19.21 603.88-20.01 603.54-20.8 602.95-21.39 602.36-21.97 601.57-22.31 600.78-22.66 599.87-22.66L599.87-22.66 597.87-22.66Q596.97-22.66 596.17-22.31 595.38-21.97 594.8-21.39 594.21-20.8 593.87-20.01 593.53-19.21 593.53-18.31L593.53-18.31 593.53 0 590.52 0 590.52-35.01 593.53-35.01 593.53-22.9Q594.55-24.12 595.99-24.8 597.43-25.49 599.12-25.49L599.12-25.49 599.87-25.49Q601.39-25.49 602.73-24.91 604.07-24.34 605.07-23.34 606.07-22.34 606.65-21 607.22-19.65 607.22-18.14L607.22-18.14 607.22 0ZM629.92 0L628.92 0 627.26-2.49Q626.24-1.15 624.7-0.33 623.16 0.49 621.33 0.49L621.33 0.49 620.57 0.49Q619.06 0.49 617.72-0.09 616.38-0.66 615.37-1.66 614.37-2.66 613.8-4 613.23-5.35 613.23-6.86L613.23-6.86 613.23-7.1Q613.23-8.62 613.8-9.96 614.37-11.3 615.37-12.3 616.38-13.31 617.72-13.88 619.06-14.45 620.57-14.45L620.57-14.45 626.92-14.45 626.92-18.31Q626.92-19.21 626.58-20.01 626.24-20.8 625.65-21.39 625.07-21.97 624.27-22.31 623.48-22.66 622.58-22.66L622.58-22.66 620.82-22.66Q619.92-22.66 619.12-22.31 618.33-21.97 617.74-21.39 617.16-20.8 616.81-20.01 616.47-19.21 616.47-18.31L616.47-18.31 616.47-17.41 613.47-17.9 613.47-18.14Q613.47-19.65 614.04-21 614.62-22.34 615.62-23.34 616.62-24.34 617.96-24.91 619.3-25.49 620.82-25.49L620.82-25.49 622.58-25.49Q624.09-25.49 625.43-24.91 626.78-24.34 627.78-23.34 628.78-22.34 629.35-21 629.92-19.65 629.92-18.14L629.92-18.14 629.92 0ZM626.92-6.69L626.92-12.11 620.57-12.11Q619.67-12.11 618.88-11.77 618.08-11.43 617.5-10.83 616.91-10.23 616.57-9.44 616.23-8.64 616.23-7.74L616.23-7.74 616.23-6.69Q616.23-5.79 616.57-4.99 616.91-4.2 617.5-3.61 618.08-3.03 618.88-2.69 619.67-2.34 620.57-2.34L620.57-2.34 622.58-2.34Q623.48-2.34 624.27-2.69 625.07-3.03 625.65-3.61 626.24-4.2 626.58-4.99 626.92-5.79 626.92-6.69L626.92-6.69ZM652.63 0L649.62 0 649.62-18.31Q649.62-19.21 649.28-20.01 648.94-20.8 648.35-21.39 647.77-21.97 646.98-22.31 646.18-22.66 645.28-22.66L645.28-22.66 643.28-22.66Q642.37-22.66 641.58-22.31 640.79-21.97 640.2-21.39 639.61-20.8 639.27-20.01 638.93-19.21 638.93-18.31L638.93-18.31 638.93 0 635.93 0 635.93-25 636.93-25 638.56-22.46Q639.59-23.85 641.14-24.67 642.69-25.49 644.52-25.49L644.52-25.49 645.28-25.49Q646.79-25.49 648.14-24.91 649.48-24.34 650.48-23.34 651.48-22.34 652.05-21 652.63-19.65 652.63-18.14L652.63-18.14 652.63 0ZM699.52-25L691.17 0 689.54 0 683.68-18.85 683.58-20.14 683.48-18.85 677.62 0 675.96 0 667.61-25 670.66-25 676.62-6.1 676.72-4.81 676.82-6.1 682.68-25 684.48-25 690.32-6.1 690.42-4.81 690.51-6.1 696.47-25 699.52-25ZM719.73 0L716.73 0 716.73-18.31Q716.73-19.21 716.39-20.01 716.05-20.8 715.46-21.39 714.88-21.97 714.08-22.31 713.29-22.66 712.39-22.66L712.39-22.66 710.38-22.66Q709.48-22.66 708.69-22.31 707.89-21.97 707.31-21.39 706.72-20.8 706.38-20.01 706.04-19.21 706.04-18.31L706.04-18.31 706.04 0 703.03 0 703.03-35.01 706.04-35.01 706.04-22.9Q707.06-24.12 708.5-24.8 709.94-25.49 711.63-25.49L711.63-25.49 712.39-25.49Q713.9-25.49 715.24-24.91 716.58-24.34 717.59-23.34 718.59-22.34 719.16-21 719.73-19.65 719.73-18.14L719.73-18.14 719.73 0ZM742.44 0L741.44 0 739.78-2.49Q738.75-1.15 737.21-0.33 735.67 0.49 733.84 0.49L733.84 0.49 733.09 0.49Q731.57 0.49 730.23-0.09 728.89-0.66 727.89-1.66 726.89-2.66 726.31-4 725.74-5.35 725.74-6.86L725.74-6.86 725.74-7.1Q725.74-8.62 726.31-9.96 726.89-11.3 727.89-12.3 728.89-13.31 730.23-13.88 731.57-14.45 733.09-14.45L733.09-14.45 739.43-14.45 739.43-18.31Q739.43-19.21 739.09-20.01 738.75-20.8 738.16-21.39 737.58-21.97 736.78-22.31 735.99-22.66 735.09-22.66L735.09-22.66 733.33-22.66Q732.43-22.66 731.63-22.31 730.84-21.97 730.25-21.39 729.67-20.8 729.33-20.01 728.98-19.21 728.98-18.31L728.98-18.31 728.98-17.41 725.98-17.9 725.98-18.14Q725.98-19.65 726.56-21 727.13-22.34 728.13-23.34 729.13-24.34 730.47-24.91 731.82-25.49 733.33-25.49L733.33-25.49 735.09-25.49Q736.6-25.49 737.94-24.91 739.29-24.34 740.29-23.34 741.29-22.34 741.86-21 742.44-19.65 742.44-18.14L742.44-18.14 742.44 0ZM739.43-6.69L739.43-12.11 733.09-12.11Q732.18-12.11 731.39-11.77 730.6-11.43 730.01-10.83 729.42-10.23 729.08-9.44 728.74-8.64 728.74-7.74L728.74-7.74 728.74-6.69Q728.74-5.79 729.08-4.99 729.42-4.2 730.01-3.61 730.6-3.03 731.39-2.69 732.18-2.34 733.09-2.34L733.09-2.34 735.09-2.34Q735.99-2.34 736.78-2.69 737.58-3.03 738.16-3.61 738.75-4.2 739.09-4.99 739.43-5.79 739.43-6.69L739.43-6.69ZM760.28 0L757.55 0Q756.18 0 754.97-0.51 753.76-1.03 752.87-1.93 751.98-2.83 751.46-4.03 750.93-5.22 750.93-6.59L750.93-6.59 750.93-22.14 746.44-22.14 746.44-25 750.93-25 750.93-31.01 753.93-31.49 753.93-25 760.28-25 760.28-22.14 753.93-22.14 753.93-6.45Q753.93-5.69 754.21-5.04 754.49-4.39 754.98-3.91 755.47-3.42 756.13-3.14 756.79-2.86 757.55-2.86L757.55-2.86 760.28-2.86 760.28 0ZM793.99-25L781.35 10.01 778.44 10.01 782.88-2.15 774.78-25 777.78-25 784.3-6.05 784.4-4.76 784.49-6.05 790.99-25 793.99-25ZM813.69-6.86L813.69-6.86Q813.69-5.35 813.12-4 812.54-2.66 811.54-1.66 810.54-0.66 809.2-0.09 807.86 0.49 806.34 0.49L806.34 0.49 804.34 0.49Q802.83 0.49 801.48-0.09 800.14-0.66 799.14-1.66 798.14-2.66 797.57-4 796.99-5.35 796.99-6.86L796.99-6.86 796.99-18.14Q796.99-19.65 797.57-21 798.14-22.34 799.14-23.34 800.14-24.34 801.48-24.91 802.83-25.49 804.34-25.49L804.34-25.49 806.34-25.49Q807.86-25.49 809.2-24.91 810.54-24.34 811.54-23.34 812.54-22.34 813.12-21 813.69-19.65 813.69-18.14L813.69-18.14 813.69-6.86ZM810.69-6.69L810.69-18.31Q810.69-19.21 810.35-20.01 810-20.8 809.42-21.39 808.83-21.97 808.04-22.31 807.25-22.66 806.34-22.66L806.34-22.66 804.34-22.66Q803.44-22.66 802.64-22.31 801.85-21.97 801.26-21.39 800.68-20.8 800.34-20.01 800-19.21 800-18.31L800-18.31 800-6.69Q800-5.79 800.34-4.99 800.68-4.2 801.26-3.61 801.85-3.03 802.64-2.69 803.44-2.34 804.34-2.34L804.34-2.34 806.34-2.34Q807.25-2.34 808.04-2.69 808.83-3.03 809.42-3.61 810-4.2 810.35-4.99 810.69-5.79 810.69-6.69L810.69-6.69ZM836.39 0L835.39 0 833.73-2.54Q832.71-1.15 831.17-0.33 829.63 0.49 827.8 0.49L827.8 0.49 827.04 0.49Q825.53 0.49 824.19-0.09 822.84-0.66 821.84-1.66 820.84-2.66 820.27-4 819.69-5.35 819.69-6.86L819.69-6.86 819.69-25 822.7-25 822.7-6.69Q822.7-5.79 823.04-4.99 823.38-4.2 823.97-3.61 824.55-3.03 825.35-2.69 826.14-2.34 827.04-2.34L827.04-2.34 829.05-2.34Q829.95-2.34 830.74-2.69 831.54-3.03 832.12-3.61 832.71-4.2 833.05-4.99 833.39-5.79 833.39-6.69L833.39-6.69 833.39-25 836.39-25 836.39 0ZM857.9 0L854.89 0 854.89-35.01 857.9-35.01 857.9 0ZM881.11-6.86L881.11-6.86Q881.11-5.35 880.54-4 879.97-2.66 878.96-1.66 877.96-0.66 876.62-0.09 875.28 0.49 873.76 0.49L873.76 0.49 871.76 0.49Q870.25 0.49 868.91-0.09 867.56-0.66 866.56-1.66 865.56-2.66 864.99-4 864.41-5.35 864.41-6.86L864.41-6.86 864.41-18.14Q864.41-19.65 864.99-21 865.56-22.34 866.56-23.34 867.56-24.34 868.91-24.91 870.25-25.49 871.76-25.49L871.76-25.49 873.76-25.49Q875.28-25.49 876.62-24.91 877.96-24.34 878.96-23.34 879.97-22.34 880.54-21 881.11-19.65 881.11-18.14L881.11-18.14 881.11-6.86ZM878.11-6.69L878.11-18.31Q878.11-19.21 877.77-20.01 877.43-20.8 876.84-21.39 876.25-21.97 875.46-22.31 874.67-22.66 873.76-22.66L873.76-22.66 871.76-22.66Q870.86-22.66 870.07-22.31 869.27-21.97 868.69-21.39 868.1-20.8 867.76-20.01 867.42-19.21 867.42-18.31L867.42-18.31 867.42-6.69Q867.42-5.79 867.76-4.99 868.1-4.2 868.69-3.61 869.27-3.03 870.07-2.69 870.86-2.34 871.76-2.34L871.76-2.34 873.76-2.34Q874.67-2.34 875.46-2.69 876.25-3.03 876.84-3.61 877.43-4.2 877.77-4.99 878.11-5.79 878.11-6.69L878.11-6.69ZM904.3-6.35L904.3-6.35Q904.3-4.83 903.69-3.58 903.08-2.32 902.03-1.42 900.98-0.51 899.6-0.01 898.22 0.49 896.71 0.49L896.71 0.49 894.71 0.49Q893.2 0.49 891.82-0.09 890.44-0.66 889.4-1.66 888.36-2.66 887.74-4 887.12-5.35 887.12-6.86L887.12-6.86 887.12-7.86 890.12-8.35 890.12-6.69Q890.12-5.79 890.5-4.99 890.88-4.2 891.51-3.61 892.15-3.03 892.98-2.69 893.81-2.34 894.71-2.34L894.71-2.34 896.71-2.34Q897.61-2.34 898.44-2.61 899.27-2.88 899.92-3.38 900.57-3.88 900.95-4.59 901.33-5.3 901.33-6.2L901.33-6.2Q901.33-7.54 900.74-8.4 900.15-9.25 899.19-9.83 898.22-10.4 896.99-10.78 895.76-11.16 894.47-11.54 893.17-11.91 891.94-12.4 890.71-12.89 889.74-13.68 888.78-14.48 888.19-15.67 887.6-16.87 887.6-18.65L887.6-18.65Q887.6-20.17 888.19-21.42 888.78-22.68 889.78-23.58 890.78-24.49 892.11-24.99 893.44-25.49 894.95-25.49L894.95-25.49 896.71-25.49Q898.22-25.49 899.57-24.91 900.91-24.34 901.91-23.34 902.91-22.34 903.49-21 904.06-19.65 904.06-18.14L904.06-18.14 904.06-18.04 901.06-17.55 901.06-18.31Q901.06-19.21 900.72-20.01 900.37-20.8 899.79-21.39 899.2-21.97 898.41-22.31 897.61-22.66 896.71-22.66L896.71-22.66 894.95-22.66Q894.05-22.66 893.26-22.39 892.46-22.12 891.88-21.62 891.29-21.12 890.95-20.41 890.61-19.7 890.61-18.8L890.61-18.8Q890.61-17.5 891.19-16.69 891.78-15.87 892.74-15.31 893.71-14.75 894.94-14.37 896.17-13.99 897.46-13.59 898.74-13.18 899.97-12.67 901.2-12.16 902.17-11.35 903.13-10.55 903.72-9.34 904.3-8.13 904.3-6.35ZM921.9 0L919.17 0Q917.8 0 916.59-0.51 915.39-1.03 914.49-1.93 913.6-2.83 913.08-4.03 912.55-5.22 912.55-6.59L912.55-6.59 912.55-22.14 908.06-22.14 908.06-25 912.55-25 912.55-31.01 915.56-31.49 915.56-25 921.9-25 921.9-22.14 915.56-22.14 915.56-6.45Q915.56-5.69 915.84-5.04 916.12-4.39 916.61-3.91 917.09-3.42 917.75-3.14 918.41-2.86 919.17-2.86L919.17-2.86 921.9-2.86 921.9 0ZM931.86-35.01L930.52-10.6 928.76-10.6 927.42-35.01 931.86-35.01ZM931.52 0L927.76 0 927.76-3.76 931.52-3.76 931.52 0Z" opacity="1" transform="matrix(1,0,0,1,0,0)" fill="#a1b18e" class="slogan-text-1" data-fill-palette-color="secondary" id="text-1"></path></svg></g></svg></g></svg></g></svg></g><g transform="matrix(1,0,0,1,200.75163044140737,0)"><svg viewBox="0 0 88.45223052316788 76.1584665526866" height="76.1584665526866" width="88.45223052316788"><g><svg xmlns="http://www.w3.org/2000/svg" xmlns:xlink="http://www.w3.org/1999/xlink" version="1.1" x="0" y="0" viewBox="0.852 8.295343389147384 99.148 85.3676566108526" enable-background="new 0 0 100 100" xml:space="preserve" height="76.1584665526866" width="88.45223052316788" class="icon-icon-0" data-fill-palette-color="accent" id="icon-0"><path d="M92.422 47.256C92.464 47.076 92.488 46.89 92.488 46.701 92.488 44.942 90.565 43.518 88.192 43.518 87.335 43.518 86.538 43.705 85.867 44.025A23.5 23.5 0 0 0 82.39 43.343C81.342 42.158 79.518 41.374 77.443 41.374 74.807 41.374 72.575 42.639 71.826 44.383 67.677 45.791 64.484 48.315 63.1 51.38H76.874L76.867 51.386C75.875 52.189 73.241 53.536 66.741 53.536 62.741 53.536 59.412 54.885 56.844 57.547 55.71 58.723 54.818 60.071 54.114 61.481 53.187 56.75 52.823 50.017 56.022 48.714 65.251 44.954 71.638 37.694 72.389 30.308H100C97.516 24.807 91.954 20.225 84.685 17.496 84.953 17.025 85.101 16.52 85.101 15.995 85.101 13.447 81.682 11.382 77.464 11.382 76.676 11.382 75.916 11.454 75.201 11.588 73.846 9.29 70.513 7.92 66.84 8.386 62.307 8.961 58.973 12.112 59.393 15.425 59.409 15.546 59.43 15.665 59.456 15.783 54.157 16.914 49.446 18.952 45.713 21.628L45.672 21.618C45.227 21.014 44.417 20.609 43.489 20.609 42.92 20.609 42.397 20.763 41.973 21.019A35 35 0 0 0 38.277 20.825C35.154 20.825 32.172 21.233 29.436 21.972A5.1 5.1 0 0 0 27.421 21.563C25.299 21.563 23.538 22.817 23.19 24.464 21.402 25.452 19.828 26.611 18.519 27.906 17.297 27.317 15.822 26.972 14.232 26.972 10.014 26.972 6.595 29.393 6.595 32.381 6.595 33.089 6.789 33.765 7.139 34.385 4.246 36.246 2.051 38.605 0.852 41.262H16.207C16.355 42.155 16.884 43.786 18.745 45.294 21.417 47.456 25.878 48.554 32.006 48.554 34.631 48.554 36.693 49.364 38.308 51.032 42.468 55.329 42.246 63.712 42.244 63.792L42.257 63.793 40.362 91.836H40.366L40.365 91.841C40.365 92.847 44.329 93.663 49.219 93.663S58.072 92.847 58.072 91.841L58.071 91.836H58.072L56.726 70.185C57.088 67.36 58.026 63.49 60.441 60.996 62.056 59.328 64.118 58.517 66.744 58.517 72.871 58.517 77.332 57.421 80.003 55.257 81.763 53.833 82.333 52.298 82.514 51.38H95.757C95.062 49.846 93.914 48.448 92.422 47.256M40.499 35.335C38.972 34.175 37.198 33.168 35.233 32.355H40.053C40.14 33.398 40.289 34.392 40.499 35.335M46.671 48.437C46.103 50.049 45.765 51.899 45.659 53.959 44.867 51.7 43.68 49.429 41.901 47.585 39.333 44.923 36.004 43.573 32.005 43.573 26.484 43.573 23.744 42.609 22.417 41.8A4.5 4.5 0 0 1 21.694 41.264H43.09C43.515 41.847 43.981 42.391 44.491 42.898A13.6 13.6 0 0 0 48.141 45.477 13.2 13.2 0 0 0 46.671 48.437M51.071 42.516C49.825 42.085 48.427 41.366 47.212 40.16 45.36 38.32 44.261 35.702 43.93 32.356H61.197A13.4 13.4 0 0 0 60.043 30.31H64.457C64.105 31.963 63.183 33.72 61.769 35.388 59.642 37.9 56.631 39.996 53.062 41.45 52.352 41.738 51.688 42.097 51.071 42.516" fill="#bebe88" data-fill-palette-color="accent"></path></svg></g></svg></g></svg></g></svg></g></svg></g></svg></g><defs></defs></svg><rect width="320" height="360" fill="none" stroke="none" visibility="hidden"></rect></g></svg></g></svg>