<svg xmlns="http://www.w3.org/2000/svg" version="1.1" xmlns:xlink="http://www.w3.org/1999/xlink" xmlns:svgjs="http://svgjs.dev/svgjs" width="1500" height="939" viewBox="0 0 1500 939"><g transform="matrix(1,0,0,1,-0.9090909090909918,-1.5145161290323017)"><svg viewBox="0 0 396 248" data-background-color="#dfdad6" preserveAspectRatio="xMidYMid meet" height="939" width="1500" xmlns="http://www.w3.org/2000/svg" xmlns:xlink="http://www.w3.org/1999/xlink"><g id="tight-bounds" transform="matrix(1,0,0,1,0.2400000000000091,0.4000000000000057)"><svg viewBox="0 0 395.52 247.2" height="247.2" width="395.52"><g><svg></svg></g><g><svg viewBox="0 0 395.52 247.2" height="247.2" width="395.52"><g transform="matrix(1,0,0,1,75.54432,78.95252850904969)"><svg viewBox="0 0 244.43135999999998 89.29494298190062" height="89.29494298190062" width="244.43135999999998"><g><svg viewBox="0 0 244.43135999999998 89.29494298190062" height="89.29494298190062" width="244.43135999999998"><g><svg viewBox="0 0 244.43135999999998 89.29494298190062" height="89.29494298190062" width="244.43135999999998"><g><svg viewBox="0 0 244.43135999999998 89.29494298190062" height="89.29494298190062" width="244.43135999999998"><g id="textblocktransform"><svg viewBox="0 0 244.43135999999998 89.29494298190062" height="89.29494298190062" width="244.43135999999998" id="textblock"><g><svg viewBox="0 0 244.43135999999998 64.50814615470394" height="64.50814615470394" width="244.43135999999998"><g transform="matrix(1,0,0,1,0,0)"><svg width="244.43135999999998" viewBox="0.675 -34.3 134.50499999749997 35.5" height="64.50814615470394" data-palette-color="#e33e33"><path d="M10.3-4.15L10.5-3.85Q10.5-3 10.05-2.7L10.05-2.7Q9.35-2.5 9.18-2.9 9-3.3 9.2-3.55L9.2-3.55Q9.2-3.85 9.3-3.85L9.3-3.85Q9.65-4.1 9.83-4.15 10-4.2 10.1-4.2L10.1-4.2Q10.25-4.2 10.3-4.15L10.3-4.15ZM1.35-25.85L1.35-25.85Q1.25-25.85 1.1-25.98 0.95-26.1 1-26.2L1-26.2Q0.75-26.3 0.7-26.6 0.65-26.9 0.7-27.15L0.7-27.15Q0.7-27.4 0.88-27.63 1.05-27.85 1.3-27.95L1.3-27.95Q1.6-28.1 1.8-28.1L1.8-28.1Q2.2-28.1 2.38-27.78 2.55-27.45 2.55-27.1L2.55-27.1Q2.6-26.55 2.25-26.18 1.9-25.8 1.35-25.85ZM10.15-21.6L9.85-21.6Q9.6-21.95 9.6-22.1L9.6-22.1Q9.9-22.65 10.45-22.65L10.45-22.65Q10.8-22.55 10.8-22.3L10.8-22.3Q10.8-22.05 10.55-21.8L10.55-21.8Q10.15-21.6 10.15-21.6L10.15-21.6ZM11.05-25.4L11.05-25.4Q11.15-24.7 11.15-24.53 11.15-24.35 11.1-24.25L11.1-24.25Q10.65-24.05 10.65-23.95L10.65-23.95Q10.45-23.6 10.2-23.6L10.2-23.6Q10.05-23.6 9.85-23.8L9.85-23.8Q9.8-23.95 9.8-24.25L9.8-24.25 9.8-24.6Q9.9-24.9 10.13-25.2 10.35-25.5 10.7-25.5L10.7-25.5Q10.85-25.5 11.05-25.4ZM6.05-33.65L6.45-33.65 6.5-33.55Q7.25-33.55 8.05-33.35L8.05-33.35Q8.8-33 9.25-32.85 9.7-32.7 10.35-32.45L10.35-32.45Q10.45-32.45 10.58-32.5 10.7-32.55 10.9-32.6L10.9-32.6Q11.15-32.7 11.3-32.85L11.3-32.85Q11.7-32.95 11.75-32.95L11.75-32.95Q11.8-32.95 12-32.85L12-32.85Q12.05-32.9 12.25-32.9L12.25-32.9 12.4-32.9 12.9-32.9Q13.1-32.95 13.3-32.95 13.5-32.95 13.7-32.95L13.7-32.95Q14.55-32.95 15.15-32.75L15.15-32.75 15.75-32.75 16-32.75 17.45-32.75Q17.55-32.7 17.9-32.7L17.9-32.7 18.45-32.75Q18.85-32.95 19.05-32.95L19.05-32.95Q19.3-33.05 19.55-33.05L19.55-33.05Q19.8-33.05 20.03-33 20.25-32.95 20.5-32.9L20.5-32.9Q20.65-32.65 21.05-32.55L21.05-32.55Q21.35-32.45 21.65-32.15 21.95-31.85 22.2-31.45L22.2-31.45Q22.3-31.2 22.38-30.95 22.45-30.7 22.5-30.4L22.5-30.4Q22.75-29.15 22.55-28.5 22.35-27.85 21.95-27.6L21.95-27.6Q21.3-26.95 21.05-26.8 20.8-26.65 20.6-26.6L20.6-26.6Q20.2-26.55 19.9-26.3L19.9-26.3Q19.8-26.3 19.63-26.28 19.45-26.25 19.25-26.25L19.25-26.25Q18.75-26.25 18.55-26.45L18.55-26.45Q18.4-26.75 18.25-26.9L18.25-26.9Q18-27.05 17.95-27.35L17.95-27.35Q17.85-27.4 17.78-27.48 17.7-27.55 17.6-27.65L17.6-27.65Q17.35-27.9 17.1-27.9L17.1-27.9Q16.3-28.15 15.93-28.18 15.55-28.2 15.15-28.2L15.15-28.2Q14.8-28.2 14.5-28.23 14.2-28.25 13.95-28.45L13.95-28.45Q13.85-28.4 13.7-28.4L13.7-28.4 13.6-28.4Q13.05-28.4 12.7-28.25L12.7-28.25Q12.6-28.2 12.45-28.15 12.3-28.1 12.15-28.05L12.15-28.05Q11.9-27.9 11.8-27.83 11.7-27.75 11.6-27.65L11.6-27.65Q11.2-27.55 11.2-27.5L11.2-27.5Q10.65-27.15 10.5-27.08 10.35-27 10.25-27L10.25-27Q9.95-26.85 9.7-26.65 9.45-26.45 9.2-26.2L9.2-26.2Q9.05-26.05 8.95-25.98 8.85-25.9 8.7-25.8L8.7-25.8 8.55-25.35Q8.45-25.15 8.38-24.8 8.3-24.45 8.35-24.4L8.35-24.4 8.35-24.25Q8.25-23.9 8.25-23.78 8.25-23.65 8.25-23.55L8.25-23.55Q8.3-23.35 8.35-23.2L8.35-23.2Q8.35-23.15 8.35-23.1L8.35-23.1Q8.3-22.75 8.33-22.53 8.35-22.3 8.35-22.05L8.35-22.05Q8.4-21.8 8.38-21.58 8.35-21.35 8.3-21.1L8.3-21.1Q8.35-20.85 8.38-20.63 8.4-20.4 8.65-20.25L8.65-20.25Q8.9-20.2 9.1-20.2 9.3-20.2 9.5-20.2L9.5-20.2Q9.95-20.2 10.38-20.25 10.8-20.3 11.2-20.35L11.2-20.35Q11.35-20.3 11.6-20.3L11.6-20.3Q11.85-20.3 12-20.35L12-20.35Q12.4-20.45 12.75-20.55 13.1-20.65 13.2-20.75L13.2-20.75Q13.6-20.85 13.95-20.93 14.3-21 14.55-21.1L14.55-21.1Q14.8-21.3 15.15-21.3L15.15-21.3Q15.6-21.05 15.7-21.15L15.7-21.15 15.8-21.15Q16.05-20.95 16.25-20.88 16.45-20.8 16.55-20.75L16.55-20.75Q16.8-20.7 16.95-20.45 17.1-20.2 17.1-19.95L17.1-19.95Q17.1-19.3 17.25-18.85L17.25-18.85Q17.3-18.6 16.95-18.4L16.95-18.4Q16.65-17.85 16.25-17.55L16.25-17.55Q16.05-17.45 15.9-17.35 15.75-17.25 15.65-17.15L15.65-17.15Q15.25-16.75 15.15-16.6 15.05-16.45 14.9-16.35L14.9-16.35Q14.7-15.95 14.3-15.8L14.3-15.8Q14.05-15.4 13.5-15.4L13.5-15.4 12.35-15.25Q12.3-15.3 12.15-15.3L12.15-15.3Q11.95-15.3 11.85-15.25L11.85-15.25 11.7-15.25Q11.5-15.25 11.35-15.4L11.35-15.4Q11-15.45 10.65-15.53 10.3-15.6 10.05-15.9L10.05-15.9Q9.55-16.05 9.05-16.05L9.05-16.05Q8.55-16.05 8.35-15.95L8.35-15.95Q7.8-15.65 7.8-15.35L7.8-15.35Q8.2-14.75 8.28-14.3 8.35-13.85 8.35-13.6L8.35-13.6Q8.5-13.35 8.45-13.1L8.45-13.1Q8.35-12.7 8.4-12.45L8.4-12.45Q8.35-11.9 8.43-11.53 8.5-11.15 8.6-10.8L8.6-10.8Q8.5-10.5 8.55-10.3L8.55-10.3Q8.55-9.95 8.45-9.75L8.45-9.75Q8.6-9.45 8.55-9.2L8.55-9.2Q8.5-8.95 8.4-8.65L8.4-8.65Q8.25-7.75 8.6-6.65L8.6-6.65Q8.85-6.25 8.85-5.8L8.85-5.8Q8.85-5.4 8.72-4.98 8.6-4.55 8.4-4.1L8.4-4.1Q8.3-3.85 8.28-3.65 8.25-3.45 8.2-3.2L8.2-3.2Q8.25-2.95 8.15-2.58 8.05-2.2 7.95-1.95L7.95-1.95Q7.6-1.6 7.6-1.4L7.6-1.4Q7.25-1.05 6.95-1.05L6.95-1.05Q6.8-1.05 6.68-1.07 6.55-1.1 6.45-1.1L6.45-1.1Q6.2-1.1 6.1-1L6.1-1Q5.9-0.9 5.75-0.9L5.75-0.9 5.65-0.9Q5.45-1 5.25-1L5.25-1 4.35-1.2Q4.25-1.35 4.13-1.53 4-1.7 3.9-1.85L3.9-1.85Q3.8-2.05 3.7-2.2 3.6-2.35 3.55-2.6L3.55-2.6Q3.3-3.05 3.28-3.23 3.25-3.4 3.2-3.55L3.2-3.55Q3.1-3.75 3.1-3.95L3.1-3.95Q2.95-4.2 2.95-4.45L2.95-4.45Q2.9-4.75 2.7-4.95L2.7-4.95Q2.3-5.8 2.55-6.5L2.55-6.5Q2.65-6.8 2.75-7.05 2.85-7.3 2.95-7.5L2.95-7.5Q3-7.9 3.2-8.35L3.2-8.35Q3.4-9.25 3.9-9.9L3.9-9.9Q4-10.2 4.1-10.35L4.1-10.35Q4.2-10.6 4.25-10.88 4.3-11.15 4.35-11.3L4.35-11.3Q4.4-11.65 4.4-11.85 4.4-12.05 4.4-12.2L4.4-12.2 4.4-12.9Q4.35-13.15 4.35-13.33 4.35-13.5 4.35-13.7L4.35-13.7Q4.35-13.9 4.45-14.3L4.45-14.3Q4.45-14.55 4.45-14.8 4.45-15.05 4.4-15.35L4.4-15.35 4.4-16.35Q4.2-16.55 4.3-16.7L4.3-16.7Q4.2-16.95 4-16.95L4-16.95Q3.8-16.95 3.55-17.1L3.55-17.1Q3.4-17.15 3.28-17.18 3.15-17.2 3-17.2L3-17.2Q2.9-17.2 2.8-17.18 2.7-17.15 2.6-17.15L2.6-17.15Q2.45-17.2 2.35-17.45L2.35-17.45 2.15-17.65Q2.05-18.3 1.95-18.6 1.85-18.9 1.8-19.05L1.8-19.05 1.7-19.2Q1.6-19.6 1.85-19.7L1.85-19.7Q1.85-20.1 2.05-20.15L2.05-20.15Q2.15-20.2 2.23-20.23 2.3-20.25 2.4-20.35L2.4-20.35Q2.8-20.55 3.2-20.55L3.2-20.55Q3.35-20.55 3.4-20.7L3.4-20.7Q3.9-20.9 4-21.1 4.1-21.3 4.05-21.55L4.05-21.55Q3.95-22.05 4.05-22.35L4.05-22.35Q3.8-23 4-23.25L4-23.25Q4-23.9 4-24.15 4-24.4 4.1-24.8L4.1-24.8Q4.15-25.05 4.17-25.13 4.2-25.2 4.2-25.25L4.2-25.25Q4.1-25.4 4.2-25.65L4.2-25.65 4.1-26.5Q4.1-27.25 3.95-27.35L3.95-27.35Q3.75-27.65 3.7-27.8L3.7-27.8Q3.25-28.5 2.98-28.88 2.7-29.25 2.8-29.65L2.8-29.65Q2.65-30.25 2.55-30.68 2.45-31.1 2.5-31.35L2.5-31.35Q2.55-31.6 2.75-31.9L2.75-31.9Q2.95-32.05 3.05-32.3L3.05-32.3Q3.45-32.6 3.55-32.85L3.55-32.85Q3.6-32.95 3.68-33.05 3.75-33.15 3.85-33.25L3.85-33.25Q4.1-33.3 4.2-33.3 4.3-33.3 4.35-33.3L4.35-33.3Q4.6-33.3 4.7-33.35L4.7-33.35 5.5-33.55Q5.8-33.65 6.05-33.65L6.05-33.65ZM17.9-14.65L17.9-14.65Q17.8-14.55 17.7-14.5 17.6-14.45 17.5-14.4L17.5-14.4Q17.4-14.35 17.3-14.33 17.2-14.3 17.1-14.2L17.1-14.2Q16.65-14.45 16.55-14.8L16.55-14.8Q16.2-15.35 16.25-15.45L16.25-15.45 16.65-16.1Q16.8-16.25 16.85-16.32 16.9-16.4 16.95-16.45L16.95-16.45Q17.55-16.85 18-16.85L18-16.85Q18.45-16.85 18.6-16.5L18.6-16.5Q18.65-15.85 18.4-15.45L18.4-15.45Q18.25-15.25 18.13-15.08 18-14.9 17.9-14.65ZM23.85-32.15L23.85-32.15 23.7-31.95Q23.25-32 23.03-32.55 22.8-33.1 22.8-33.5L22.8-33.5Q23.35-33.85 23.7-33.85L23.7-33.85Q24-33.85 24.25-33.65L24.25-33.65Q24.35-33.55 24.45-33.4 24.55-33.25 24.6-33.15L24.6-33.15Q24.6-33.1 24.58-32.93 24.55-32.75 24.45-32.7L24.45-32.7Q24.25-32.15 23.85-32.15ZM30.7-5.1L30.7-5.1Q30.75-5.85 30.92-6.05 31.1-6.25 31.3-6.25L31.3-6.25Q31.85-6.25 31.75-5.55L31.75-5.55Q31.4-5.05 30.95-5.05L30.95-5.05Q30.85-5.05 30.82-5.08 30.8-5.1 30.7-5.1ZM33.35-4.95L33.35-4.95 33.25-5.1Q33.45-5.35 33.57-5.45 33.7-5.55 33.75-5.65L33.75-5.65Q34.5-6 34.95-6L34.95-6Q35.45-6 35.75-5.7L35.75-5.7Q36-5.45 36.12-5.1 36.25-4.75 36-4.4L36-4.4Q35.8-4.35 35.55-4.1L35.55-4.1Q35.35-4 35-4L35-4Q34.7-4.05 34.42-4.1 34.15-4.15 33.85-4.35L33.85-4.35Q33.45-4.45 33.4-4.6 33.35-4.75 33.35-4.95ZM43.35-6.7L43.35-6.7Q43.9-6.45 44.2-5.88 44.5-5.3 44.35-4.6L44.35-4.6Q44.1-4.25 43.9-4.2L43.9-4.2 43.75-4.2Q43.5-4.2 43.4-4.15L43.4-4.15 43.2-4.3Q43.15-4.35 42.95-4.35L42.95-4.35 42.85-4.35Q42.35-4.9 42.35-5.5L42.35-5.5Q42.35-5.95 42.5-6.4L42.5-6.4 42.95-6.55Q43.05-6.6 43.15-6.63 43.25-6.65 43.35-6.7ZM25.05-25.4L25.05-25.4Q25.2-25.3 25.2-24.95L25.2-24.95Q25.2-24.6 25.15-24.4L25.15-24.4Q24.85-24.1 24.9-23.95L24.9-23.95Q24.6-23.95 24.4-23.98 24.2-24 24.05-24L24.05-24Q23.65-24.15 23.6-24.53 23.55-24.9 23.6-25.25L23.6-25.25Q23.9-25.55 24.1-25.65L24.1-25.65Q24.8-25.8 25.05-25.4ZM39.9-10.2L40-9.7Q40.25-9.15 40.3-8.9L40.3-8.9Q40.4-8.6 40.35-8.3L40.35-8.3Q40.45-8.1 40.55-7.7L40.55-7.7Q40.7-6.9 40.9-6.45L40.9-6.45Q41-6.3 41.05-6.18 41.1-6.05 41.1-5.9L41.1-5.9Q41.2-5.5 41.3-5.35L41.3-5.35Q41.35-5.25 41.35-5.13 41.35-5 41.4-4.85L41.4-4.85Q41.6-4.6 41.67-4.4 41.75-4.2 41.85-4.1L41.85-4.1Q41.95-3.8 42.05-3.65L42.05-3.65Q42.15-3.45 42.3-3.25L42.3-3.25Q42.7-2.95 42.75-2.6L42.75-2.6Q42.75-2.4 42.9-2.25L42.9-2.25Q42.95-2 43-1.85 43.05-1.7 43.15-1.45L43.15-1.45Q43.1-1.3 43.2-0.95L43.2-0.95Q43-0.4 42.55 0.25 42.1 0.9 41.4 0.9L41.4 0.9Q41.2 0.9 41.1 1.1L41.1 1.1 40.95 1.1Q40.75 1.1 40.6 1.15L40.6 1.15Q40.55 1.2 40.4 1.2L40.4 1.2Q40.15 1.2 39.92 1.1 39.7 1 39.65 0.9L39.65 0.9Q39.45 0.75 39.37 0.73 39.3 0.7 39.25 0.7L39.25 0.7Q38.8 0.35 38.57-0.03 38.35-0.4 38.25-0.8L38.25-0.8Q38-1.05 37.9-1.35L37.9-1.35Q37.8-1.65 37.7-1.85L37.7-1.85Q37.6-2.55 37.7-3.3L37.7-3.3Q37.7-4 37.55-4.5 37.4-5 37.15-5.6L37.15-5.6Q37.1-6.2 36.85-6.5L36.85-6.5Q36.75-6.65 36.67-6.83 36.6-7 36.55-7.15L36.55-7.15Q36.3-7.2 36.12-7.23 35.95-7.25 35.7-7.25L35.7-7.25Q35.45-7.25 35.22-7.25 35-7.25 34.75-7.3L34.75-7.3Q34.5-7.35 34.35-7.35 34.2-7.35 34-7.35L34-7.35 33.7-7.35Q33.25-7.35 32.85-7.45L32.85-7.45Q32.05-7.6 31.3-7.6L31.3-7.6 30.6-7.6Q30.4-7.65 30.2-7.65L30.2-7.65Q30.1-7.65 30.05-7.65L30.05-7.65 28.9-7.65Q28.45-7.65 28.05-7.5L28.05-7.5Q27.8-7.3 27.67-7.25 27.55-7.2 27.45-7.15L27.45-7.15Q27.25-7.1 27.02-7.03 26.8-6.95 26.65-6.7L26.65-6.7Q26.35-6.2 26.45-5.85L26.45-5.85Q26.55-5.7 26.4-5.45L26.4-5.45Q26.5-4.9 26.42-4.28 26.35-3.65 26.25-3.1L26.25-3.1Q26.4-2.6 26.35-2.15L26.35-2.15Q26.2-1.65 26.2-1.15L26.2-1.15Q25.95-0.55 25.47-0.2 25 0.15 24.45 0.5L24.45 0.5Q23.65 0.6 23.45 1L23.45 1Q23.1 1 22.95 0.9L22.95 0.9Q22.85 0.8 22.6 0.8L22.6 0.8 22.4 0.8Q22.2 0.95 21.95 0.95L21.95 0.95Q21.75 0.95 21.5 0.8L21.5 0.8Q21.25 0.7 21.07 0.6 20.9 0.5 20.65 0.4L20.65 0.4Q20.65 0.3 20.55-0.1L20.55-0.1Q20.5-0.2 20.47-0.3 20.45-0.4 20.35-0.5L20.35-0.5Q20.1-1 20.3-1.3L20.3-1.3Q20.45-1.65 20.35-2.1L20.35-2.1Q20.35-2.7 20.52-3.08 20.7-3.45 20.95-3.85L20.95-3.85Q21.25-4.7 21.37-4.95 21.5-5.2 21.6-5.3L21.6-5.3Q21.8-5.5 21.75-5.8L21.75-5.8Q22.15-6.5 22.35-6.7L22.35-6.7Q22.55-7 22.65-7.25L22.65-7.25Q22.55-7.6 22.47-7.78 22.4-7.95 22.25-8.3L22.25-8.3Q22.1-8.5 22.1-8.95L22.1-8.95Q22.1-9.05 22.12-9.38 22.15-9.7 22.25-9.8L22.25-9.8Q22.5-10.25 22.8-10.45L22.8-10.45Q22.95-10.5 23.15-10.7L23.15-10.7Q23.25-11.1 23.37-11.5 23.5-11.9 23.5-12.3L23.5-12.3Q23.55-12.55 23.57-12.75 23.6-12.95 23.55-13.2L23.55-13.2Q23.5-13.55 23.85-13.9L23.85-13.9Q24.1-14.3 24.2-14.55L24.2-14.55Q24.15-14.8 24.27-15.1 24.4-15.4 24.55-15.65L24.55-15.65Q24.65-16.05 24.75-16.48 24.85-16.9 25-17.25L25-17.25Q25-17.45 25.15-17.65L25.15-17.65Q25.25-17.85 25.15-18L25.15-18Q25.25-18.25 25.32-18.53 25.4-18.8 25.45-19.1L25.45-19.1Q25.5-19.35 25.55-19.6 25.6-19.85 25.75-20.1L25.75-20.1Q25.8-20.25 25.8-20.5L25.8-20.5Q25.8-20.85 25.87-21.03 25.95-21.2 26.05-21.35L26.05-21.35Q26.35-21.55 26.35-21.9L26.35-21.9 26.65-22.6 26.65-23.4Q26.4-23.6 26.5-24.2L26.5-24.2Q26.6-24.35 26.5-24.7L26.5-24.7Q26.8-25.2 26.95-25.78 27.1-26.35 27.2-26.95L27.2-26.95Q27.2-27.2 27.1-27.5L27.1-27.5 26.95-27.9Q26.7-28.05 26.65-28.3 26.6-28.55 26.5-28.8L26.5-28.8Q26.65-29.15 26.7-29.4L26.7-29.4Q26.75-29.55 26.82-29.63 26.9-29.7 27-29.8L27-29.8Q27.05-30.05 27.15-30.15 27.25-30.25 27.5-30.4L27.5-30.4Q27.6-30.9 27.97-30.98 28.35-31.05 28.9-31.1L28.9-31.1Q29.2-31.2 29.2-31.25L29.2-31.25Q29.35-31.3 29.45-31.35 29.55-31.4 29.65-31.35L29.65-31.35Q29.75-31.3 30.05-31.3L30.05-31.3Q30.45-31.5 30.75-31.6 31.05-31.7 31.3-31.7L31.3-31.7Q31.4-31.7 31.8-31.6L31.8-31.6Q32.35-31.4 32.85-31.35L32.85-31.35Q33.05-31.25 33.35-31.15L33.35-31.15Q33.9-30.7 34.2-30L34.2-30Q34.3-29.5 34.25-29.08 34.2-28.65 34.1-28.2L34.1-28.2Q34.1-27.8 34.15-27.48 34.2-27.15 34.3-26.9L34.3-26.9Q34.35-26.65 34.4-26.5 34.45-26.35 34.5-26.25L34.5-26.25Q34.55-25.85 34.6-25.73 34.65-25.6 34.75-25.45L34.75-25.45Q34.8-25.35 34.8-25.1L34.8-25.1Q34.8-24.7 35-24.5L35-24.5Q35.05-24.4 35.1-24.3 35.15-24.2 35.15-24.1L35.15-24.1Q35.2-23.3 35.55-23.05L35.55-23.05Q35.65-22.65 35.8-22.55L35.8-22.55Q36-22 36.05-21.6L36.05-21.6Q36.1-21.15 36.3-20.6L36.3-20.6 36.65-20Q36.7-19.9 36.75-19.78 36.8-19.65 36.85-19.55L36.85-19.55Q36.95-19.45 36.97-19.33 37-19.2 37.05-19.1L37.05-19.1Q37.05-18.65 37.1-18.6L37.1-18.6Q37.15-18.4 37.3-17.85 37.45-17.3 37.55-17.15L37.55-17.15Q37.55-16.9 37.65-16.8L37.65-16.8Q37.7-16.65 37.7-16.4L37.7-16.4Q37.9-16.05 38.05-15.78 38.2-15.5 38.35-15.3L38.35-15.3Q38.65-14.9 38.8-14.35L38.8-14.35Q39.1-14.05 39.15-13.65L39.15-13.65Q39.4-13.05 39.4-13.1L39.4-13.1Q39.4-12.85 39.45-12.73 39.5-12.6 39.55-12.5L39.55-12.5Q39.65-12.2 39.65-12.05L39.65-12.05Q39.75-11.55 39.8-11.45L39.8-11.45Q39.95-10.9 39.9-10.75L39.9-10.75Q39.8-10.45 39.9-10.2L39.9-10.2ZM30.7-21.85L30.7-21.85Q30.45-21.6 30.37-21.3 30.3-21 30.3-20.65L30.3-20.65 30-20Q29.95-19.8 29.95-19.25L29.95-19.25Q29.85-18.75 29.75-18.45L29.75-18.45Q29.4-17.8 29.4-17L29.4-17Q29.45-16.35 29.25-16.2L29.25-16.2 29-15.45Q28.95-15.2 28.87-14.85 28.8-14.5 28.65-14.1L28.65-14.1 28.35-13.45Q28.2-13.1 28.2-12.8L28.2-12.8Q28.2-12.6 28.22-12.45 28.25-12.3 28.3-12.1L28.3-12.1Q28.55-11.9 28.6-11.65L28.6-11.65Q28.65-11.4 29.15-11.3L29.15-11.3Q29.55-11.15 29.7-10.95L29.7-10.95Q29.8-10.8 30-10.73 30.2-10.65 30.3-10.65L30.3-10.65Q30.7-10.6 30.9-10.5L30.9-10.5Q31-10.45 31.1-10.43 31.2-10.4 31.35-10.35L31.35-10.35 32.2-10.35Q32.35-10.4 32.65-10.4L32.65-10.4Q32.9-10.4 33.05-10.35L33.05-10.35Q33.25-10.45 33.55-10.45L33.55-10.45Q33.8-10.45 34.1-10.6L34.1-10.6Q34.7-10.6 34.85-11.05L34.85-11.05Q34.95-11.3 34.85-11.7L34.85-11.7 34.85-12.35Q34.75-12.6 34.65-12.85 34.55-13.1 34.55-13.35L34.55-13.35Q34.5-13.75 34.15-14.25L34.15-14.25Q34.05-14.65 33.92-14.93 33.8-15.2 33.7-15.35L33.7-15.35Q33.45-15.65 33.4-16.05L33.4-16.05Q33.3-16.65 33.2-16.85L33.2-16.85Q33.15-17.05 33.15-17.45L33.15-17.45Q33.15-17.6 33.05-17.8L33.05-17.8Q33-17.9 32.97-18 32.95-18.1 32.9-18.25L32.9-18.25Q32.7-18.35 32.7-18.55L32.7-18.55Q32.6-18.85 32.6-18.95L32.6-18.95Q32.35-19.7 32.25-20.55L32.25-20.55Q32.2-21.2 31.7-21.75L31.7-21.75Q31.3-21.75 31.15-21.8L31.15-21.8Q31.05-21.85 30.7-21.85ZM38.25-21.75L38.25-21.75Q37.7-22.25 37.57-22.68 37.45-23.1 37.55-23.45L37.55-23.45Q37.85-24 38.25-24.2L38.25-24.2Q38.55-24.1 38.67-24.03 38.8-23.95 38.9-23.95L38.9-23.95Q39.05-23.65 39.25-23.35 39.45-23.05 39.35-22.7L39.35-22.7Q39.15-22.45 38.9-22.25L38.9-22.25Q38.8-22.15 38.77-22.08 38.75-22 38.7-21.95L38.7-21.95Q38.55-21.8 38.25-21.75ZM38.8-20.85L39.15-20.85Q39.4-20.6 39.35-20.23 39.3-19.85 38.95-19.8L38.95-19.8Q38.6-19.75 38.37-20.08 38.15-20.4 38.4-20.8L38.4-20.8Q38.55-20.85 38.8-20.85L38.8-20.85ZM42.5-4.7L43-4.8 43.05-4.9Q43.75-4.5 43.82-4.05 43.9-3.6 43.65-3.2L43.65-3.2Q43.55-3.1 43.47-3.05 43.4-3 43.3-2.9L43.3-2.9Q42.55-3.05 42.3-3.6L42.3-3.6Q42.35-4.05 42.45-4.3L42.45-4.3Q42.5-4.4 42.5-4.7L42.5-4.7ZM51-9.5L51-9.5 50.9-9.3Q50.55-9.4 50.45-9.55L50.45-9.55Q50.4-9.7 50.15-9.8L50.15-9.8Q49.9-10.2 50.1-10.58 50.3-10.95 50.6-11.2L50.6-11.2Q50.7-11.25 50.9-11.25L50.9-11.25Q51.1-11.25 51.15-11.2L51.15-11.2Q51.7-10.65 51.57-10.13 51.45-9.6 51-9.5ZM56.1-2.65L56.1-2.65 56.4-2.4Q56.55-1.75 56.3-1.35 56.05-0.95 55.8-0.6L55.8-0.6Q55.5-0.5 55.3-0.5L55.3-0.5Q54.85-0.5 54.55-0.78 54.25-1.05 54.35-1.55L54.35-1.55Q54.45-2.1 54.7-2.35L54.7-2.35Q55.15-2.7 55.25-2.9L55.25-2.9Q55.35-2.95 55.5-2.95L55.5-2.95Q55.8-2.95 56.1-2.65ZM56.85-4.45L56.85-4.45Q56.55-3.95 56.3-3.95L56.3-3.95Q56.15-3.95 56.05-4.1L56.05-4.1Q56-4.25 55.75-4.25L55.75-4.25Q55.85-4.9 56-5.05 56.15-5.2 56.35-5.2L56.35-5.2Q56.6-5.2 56.75-4.98 56.9-4.75 56.85-4.45ZM50.1-6.65L50.1-6.65Q50.35-6.65 50.4-6.8L50.4-6.8Q50.7-7.15 50.87-7.33 51.05-7.5 51.2-7.65L51.2-7.65Q51.45-7.85 51.65-8.3L51.65-8.3Q51.9-8.55 52.05-8.95L52.05-8.95Q52.15-9.2 52.35-9.4L52.35-9.4Q52.5-9.9 52.6-10L52.6-10Q52.85-10.4 52.92-10.6 53-10.8 53-10.9L53-10.9Q52.9-11.2 53.1-11.2L53.1-11.2Q53.15-11.3 53.15-11.43 53.15-11.55 53.2-11.7L53.2-11.7Q53.2-11.95 53.3-12.15L53.3-12.15Q53.3-12.55 53.5-12.8L53.5-12.8Q53.45-13.1 53.6-13.35L53.6-13.35Q53.7-13.9 53.77-14.13 53.85-14.35 53.95-14.55L53.95-14.55Q54.2-14.8 54.25-15.15L54.25-15.15 54.6-15.6Q54.7-15.8 54.75-15.95L54.75-15.95Q54.95-16.35 55-16.53 55.05-16.7 55.05-16.95L55.05-16.95Q55.05-17.3 55.25-17.6L55.25-17.6Q55.35-18.1 55.45-18.4L55.45-18.4 55.7-19.7Q55.75-20.2 55.7-20.35L55.7-20.35Q55.75-20.75 55.77-20.95 55.8-21.15 55.8-21.4L55.8-21.4Q55.75-21.7 55.85-22L55.85-22Q55.9-22.4 55.92-22.75 55.95-23.1 55.95-23.4L55.95-23.4Q55.85-23.85 56.1-24.4L56.1-24.4Q56.25-24.55 56.32-24.65 56.4-24.75 56.45-24.8L56.45-24.8Q56.75-25.1 56.95-25.1L56.95-25.1 57.15-25.4Q57.25-25.65 57.4-25.65L57.4-25.65Q57.55-26.1 57.9-26.1L57.9-26.1Q58.15-26.1 58.3-25.95L58.3-25.95Q58.7-25.95 58.9-25.65L58.9-25.65Q59.4-25.45 59.55-25L59.55-25Q59.65-24.85 59.84-24.75L59.84-24.75Q60.05-24.65 59.95-24.4L59.95-24.4Q60.15-24.2 60.15-23.65L60.15-23.65Q60.15-23.3 60.34-22.9L60.34-22.9Q60.34-22.6 60.45-22.55L60.45-22.55Q60.65-22.45 60.55-22.15L60.55-22.15Q60.84-21.6 61.05-20.98 61.25-20.35 61.2-19.55L61.2-19.55Q61.25-19 61.34-18.68 61.45-18.35 61.59-17.85L61.59-17.85Q61.75-17.6 61.9-17.3 62.05-17 62.05-16.6L62.05-16.6 62.05-15.95Q62-15.75 62.02-15.58 62.05-15.4 62.05-15.2L62.05-15.2Q62.15-14.85 62.15-14.75 62.15-14.65 62.2-14.55L62.2-14.55Q62.45-13.55 62.7-13.15L62.7-13.15Q62.9-12.85 62.92-12.73 62.95-12.6 62.9-12.5L62.9-12.5Q63.25-11.9 63.25-11.3L63.25-11.3 63.25-11.05Q63.2-10.9 63.2-10.65L63.2-10.65Q63.2-10.3 63.4-9.58 63.6-8.85 64.09-8.85L64.09-8.85Q64.25-8.85 64.37-8.97 64.5-9.1 64.59-9.2L64.59-9.2 64.95-9.7Q65.09-9.85 65.09-10.2L65.09-10.2Q65.09-10.45 65.4-10.65L65.4-10.65Q65.45-10.9 65.47-11.1 65.5-11.3 65.5-11.4L65.5-11.4Q65.45-11.5 65.55-11.75L65.55-11.75Q65.55-12.15 65.59-12.25L65.59-12.25Q65.59-12.55 65.72-13 65.84-13.45 66.05-13.6L66.05-13.6Q65.95-13.95 66.05-14.25L66.05-14.25Q66.05-14.65 66.09-14.9L66.09-14.9 66.09-15.25Q66.05-15.4 66.2-15.6L66.2-15.6Q66.05-15.9 66.2-16.25L66.2-16.25Q66.15-16.4 66.15-16.65L66.15-16.65Q66.09-16.75 66.09-16.82 66.09-16.9 66.05-17L66.05-17Q66.15-17.45 66.15-17.45L66.15-17.45 66.2-17.5Q66.2-18.15 66.05-18.65L66.05-18.65Q65.9-19.05 66.09-19.65L66.09-19.65Q66.2-19.85 66.25-19.95 66.3-20.05 66.3-20.15L66.3-20.15 66.45-20.3Q66.45-20.9 66.55-21.1L66.55-21.1Q66.59-21.35 66.57-21.7 66.55-22.05 66.5-22.2L66.5-22.2Q66.4-22.55 66.45-22.8L66.45-22.8Q66.55-23 66.45-23.15L66.45-23.15Q66.34-23.6 66.45-24L66.45-24Q66.55-24.4 66.45-24.7L66.45-24.7Q66.59-24.95 66.5-25.55L66.5-25.55Q66.55-25.8 66.57-26.03 66.59-26.25 66.5-26.5L66.5-26.5Q66.5-26.75 66.45-26.93 66.4-27.1 66.3-27.35L66.3-27.35Q66.45-27.6 66.05-27.9L66.05-27.9Q65.95-28.15 65.9-28.35 65.84-28.55 65.84-28.7L65.84-28.7 65.7-29.3Q65.65-29.5 65.45-29.8L65.45-29.8 65.45-30.3Q65.34-30.8 65.34-31L65.34-31 65.2-31.55Q65.25-31.85 65.27-32 65.3-32.15 65.25-32.25L65.25-32.25Q65.2-32.5 65.4-32.55L65.4-32.55Q65.5-32.95 65.65-33.05L65.65-33.05Q65.75-33.15 65.84-33.25 65.95-33.35 66.05-33.45L66.05-33.45Q66.34-33.65 66.55-33.7 66.75-33.75 67.05-33.75L67.05-33.75Q67.59-33.85 68-33.9 68.4-33.95 68.65-34.05L68.65-34.05Q69.05-34.15 69.25-34.15L69.25-34.15Q69.45-34.15 69.59-34.13 69.75-34.1 69.95-34.05L69.95-34.05 70.55-33.9Q70.65-33.85 70.77-33.85 70.9-33.85 71.05-33.8L71.05-33.8 71.3-33.4Q71.5-32.95 71.95-32.55L71.95-32.55Q72.15-32.35 72.3-32.05L72.3-32.05Q72.7-31.45 72.7-30.83 72.7-30.2 72.59-29.6L72.59-29.6Q72.5-29.1 72.5-28.95L72.5-28.95 72.34-28.4Q72.25-28.1 72.15-27.7 72.05-27.3 71.9-27L71.9-27Q71.95-26.3 71.84-25.93 71.75-25.55 71.65-25.2L71.65-25.2 71.34-24.5 71.34-24.05Q71.3-23.95 71.3-23.55L71.3-23.55Q71.3-23.35 71.2-22.85L71.2-22.85Q71.15-22.65 71.15-22.25L71.15-22.25Q71.15-21.75 70.9-21.45L70.9-21.45Q70.65-21.2 70.55-20.85L70.55-20.85Q70.45-20.75 70.37-20.6 70.3-20.45 70.2-20.2L70.2-20.2Q70.34-19.7 70.09-19.5L70.09-19.5Q70.09-19.25 70.09-18.95 70.09-18.65 70-18.5L70-18.5Q69.95-18.35 69.92-18.15 69.9-17.95 70-17.75L70-17.75Q70-17.55 70.09-17.35L70.09-17.35Q70.05-17.05 70.09-16.85L70.09-16.85Q69.95-16.25 69.82-15.75 69.7-15.25 69.7-14.8L69.7-14.8Q69.55-13.8 69.15-13.3L69.15-13.3Q69.15-12.95 68.9-12.8L68.9-12.8Q69-12.65 68.95-12.48 68.9-12.3 68.8-12.25L68.8-12.25Q69-12 68.7-11.7L68.7-11.7Q68.75-11.5 68.59-11.2L68.59-11.2Q68.59-10.95 68.62-10.78 68.65-10.6 68.59-10.35L68.59-10.35Q68.59-10.1 68.57-9.9 68.55-9.7 68.55-9.45L68.55-9.45Q68.59-9.2 68.57-8.93 68.55-8.65 68.45-8.55L68.45-8.55Q68.4-8.25 68.4-8 68.4-7.75 68.4-7.55L68.4-7.55 68.4-6.8Q68.4-6.4 68.34-6.05 68.3-5.7 68.05-5.45L68.05-5.45Q68.09-4.95 67.84-4.7L67.84-4.7Q67.75-4.45 67.84-4.35L67.84-4.35Q67.75-3.8 67.72-3.53 67.7-3.25 67.45-3.1L67.45-3.1Q67.4-2.8 67.22-2.58 67.05-2.35 66.8-2.15L66.8-2.15Q66.7-1.65 66.4-1.4L66.4-1.4Q66.09-1.1 65.9-0.7L65.9-0.7Q65.65-0.7 65.45-0.35L65.45-0.35Q65.3-0.1 64.95-0.1L64.95-0.1 64.84-0.1Q64.34 0.05 64.05 0.05L64.05 0.05Q63.85 0.05 63.65 0.15L63.65 0.15Q62.95-0.2 62.5-0.2L62.5-0.2Q62.25-0.2 62.15-0.15L62.15-0.15Q61.8-0.35 61.3-0.45L61.3-0.45Q60.7-0.45 60.45-0.65L60.45-0.65Q60.09-1.55 59.8-2L59.8-2Q59.59-2.2 59.52-2.45 59.45-2.7 59.34-3L59.34-3Q59.25-3.1 59.12-3.3 59-3.5 58.95-3.75L58.95-3.75 58.95-4.1Q58.84-5.25 58.84-5.7 58.84-6.15 58.9-6.55L58.9-6.55Q58.95-7.05 58.95-7.43 58.95-7.8 58.8-8.2L58.8-8.2Q58.8-8.55 58.65-8.7L58.65-8.7Q58.45-8.9 58.4-9.15L58.4-9.15Q58.4-9.4 58.15-9.8L58.15-9.8Q57.9-10.1 58.05-10.4L58.05-10.4Q57.8-11.05 57.8-11.6L57.8-11.6Q57.75-11.8 57.75-12.2L57.75-12.2Q57.75-12.45 57.85-12.65L57.85-12.65Q57.9-13.15 57.95-13.48 58-13.8 58.1-14.15L58.1-14.15Q58-14.35 57.92-14.58 57.85-14.8 57.8-15.1L57.8-15.1Q57.7-15.35 57.6-15.6 57.5-15.85 57.4-16.1L57.4-16.1 57.25-16.1Q57.1-16.1 57-15.95L57-15.95Q56.95-15.65 56.75-15.6L56.75-15.6Q56.6-15.1 56.45-14.58 56.3-14.05 56.15-13.55L56.15-13.55 55.9-12.4Q55.85-12.3 55.85-12.05L55.85-12.05Q55.75-11.8 55.85-11.65L55.85-11.65Q55.7-11.45 55.7-11.3L55.7-11.3Q55.6-10.85 55.55-10.6 55.5-10.35 55.35-10.2L55.35-10.2Q55.3-9.7 55.25-9.28 55.2-8.85 55-8.5L55-8.5Q55.05-8.35 55.02-8.2 55-8.05 55-7.85L55-7.85Q54.8-7.45 54.75-7.25L54.75-7.25Q54.65-6.85 54.5-6.75L54.5-6.75Q54.4-6.2 54.3-6.05L54.3-6.05Q54.2-5.8 54.1-5.5L54.1-5.5 53.95-5.15Q53.85-5 53.85-4.83 53.85-4.65 53.85-4.5L53.85-4.5Q53.6-3.75 53.47-3.48 53.35-3.2 53.3-3.05L53.3-3.05 52.95-2.45Q52.75-2.2 52.6-1.9 52.45-1.6 52.3-1.3L52.3-1.3Q51.95-0.7 51.5-0.45L51.5-0.45Q50.85 0.6 49.65 0.6L49.65 0.6Q49.15 0.6 48.6 0.45L48.6 0.45 48.3 0.1Q48.1-0.15 47.97-0.33 47.85-0.5 47.7-0.6L47.7-0.6 47.15-1.15Q47-1.65 46.85-1.75L46.85-1.75Q46.65-1.95 46.6-2.15L46.6-2.15Q46.35-2.3 46.15-2.5 45.95-2.7 45.95-2.95L45.95-2.95Q45.8-3.2 45.8-3.65L45.8-3.65Q45.8-3.9 45.77-4.05 45.75-4.2 45.7-4.35L45.7-4.35Q45.35-4.7 45.5-5.15L45.5-5.15Q45.6-5.4 45.62-5.6 45.65-5.8 45.7-5.95L45.7-5.95Q45.9-6.2 45.9-6.5L45.9-6.5Q45.9-6.7 46.1-6.9L46.1-6.9Q46.05-7 46.05-7.4L46.05-7.4Q46.25-8 46.05-8.35L46.05-8.35Q45.85-8.65 46-9.25L46-9.25Q46-9.5 46-9.7 46-9.9 46.05-10.15L46.05-10.15 46.05-10.9Q45.85-10.9 45.95-11.2L45.95-11.2Q45.95-11.4 45.92-11.68 45.9-11.95 45.85-12.05L45.85-12.05 45.8-12.55Q45.75-12.7 45.85-12.9L45.85-12.9Q45.65-13.05 45.65-13.35L45.65-13.35Q45.65-13.7 45.5-13.8L45.5-13.8Q45.5-14.3 45.37-14.73 45.25-15.15 45.05-15.55L45.05-15.55Q44.95-16.15 44.92-16.38 44.9-16.6 44.95-16.65L44.95-16.65Q44.85-16.95 44.82-17.05 44.8-17.15 44.8-17.2L44.8-17.2 44.8-17.7Q44.9-18.1 44.92-18.28 44.95-18.45 45-18.6L45-18.6Q44.65-19.15 44.75-19.85L44.75-19.85Q44.85-20.55 44.5-21.05L44.5-21.05 44.2-21.9Q44.2-21.95 44.1-22.25L44.1-22.25Q44.2-22.45 44.1-22.65L44.1-22.65Q44-22.9 44.05-23L44.05-23Q43.95-23.25 43.95-23.35 43.95-23.45 43.95-23.5L43.95-23.5Q43.8-23.95 43.77-24.13 43.75-24.3 43.8-24.4L43.8-24.4Q43.45-24.95 43.45-25.1L43.45-25.1Q43.45-25.25 43.25-25.55L43.25-25.55Q43-26.15 43-26.55L43-26.55Q42.9-26.85 42.85-27.03 42.8-27.2 42.75-27.3L42.75-27.3Q42.55-27.45 42.7-27.6L42.7-27.6Q42.45-27.95 42.45-28.43 42.45-28.9 42.5-29.35L42.5-29.35Q42.45-29.75 42.4-30.08 42.35-30.4 42.25-30.75L42.25-30.75Q42.1-31.35 42.27-31.93 42.45-32.5 42.65-32.75L42.65-32.75Q42.75-32.85 42.85-32.93 42.95-33 43.05-33.1L43.05-33.1 44.15-33.85Q44.3-34 44.5-34L44.5-34Q44.65-34 44.7-33.95L44.7-33.95Q44.95-33.95 45.1-34L45.1-34Q45.2-34.05 45.3-34.05L45.3-34.05Q45.45-34.05 45.5-34L45.5-34Q45.7-34.05 46.2-34.25L46.2-34.25Q46.3-34.3 46.55-34.3L46.55-34.3Q46.8-34.3 46.9-34.2L46.9-34.2Q47.3-34.2 47.45-33.95L47.45-33.95Q47.55-33.85 47.62-33.73 47.7-33.6 47.95-33.6L47.95-33.6Q48-33.45 48.1-33.35 48.2-33.25 48.3-33.15L48.3-33.15Q48.55-32.9 48.65-32.75L48.65-32.75Q48.65-32.5 48.67-32.35 48.7-32.2 48.75-32.05L48.75-32.05Q48.85-31.75 48.8-31.43 48.75-31.1 48.65-30.7L48.65-30.7Q48.6-30.5 48.55-30.33 48.5-30.15 48.45-29.95L48.45-29.95Q48.45-29.75 48.3-29.35L48.3-29.35Q48.2-29.15 48.2-28.95L48.2-28.95Q48.1-28.7 48.02-28.53 47.95-28.35 47.85-28.2L47.85-28.2Q47.5-27.5 47.45-27.25L47.45-27.25 47.3-26.5Q47.4-26.05 47.45-25.45L47.45-25.45Q47.45-24.95 47.7-24.45L47.7-24.45Q47.65-24.3 47.67-24.1 47.7-23.9 47.75-23.7L47.75-23.7Q47.85-23.3 47.87-23 47.9-22.7 47.95-22.45L47.95-22.45Q47.95-22.1 48.1-21.95L48.1-21.95Q48.05-21.6 48.1-21.15L48.1-21.15Q48.15-20.9 48.17-20.73 48.2-20.55 48.2-20.4L48.2-20.4 48.2-19.4Q48.3-19.1 48.32-19 48.35-18.9 48.4-18.8L48.4-18.8Q48.4-18.3 48.45-18.25L48.45-18.25 48.45-18Q48.5-17.8 48.5-17.68 48.5-17.55 48.55-17.45L48.55-17.45Q48.55-17.25 48.57-17.13 48.6-17 48.65-16.85L48.65-16.85Q48.7-16.25 48.72-15.73 48.75-15.2 48.75-14.7L48.75-14.7Q48.75-14.2 48.75-13.75 48.75-13.3 48.8-12.9L48.8-12.9 48.8-12.35Q49.05-12 49.05-11.8L49.05-11.8Q49.05-11.3 49.07-10.88 49.1-10.45 49.2-10.05L49.2-10.05Q49.35-9.15 49.3-8.35L49.3-8.35Q49.35-7.3 50.1-6.65ZM72.7-20.85L72.7-20.85Q72.45-20.85 72.32-20.88 72.2-20.9 72.05-20.95L72.05-20.95Q71.8-21.25 71.87-21.65 71.95-22.05 72.2-22.3L72.2-22.3Q72.5-22.4 72.55-22.4L72.55-22.4Q73-22.4 73.09-21.9L73.09-21.9Q73.2-21.6 73.09-21.28 73-20.95 72.7-20.85ZM73.75-25.65L73.75-25.65Q74.05-25.25 73.95-24.7L73.95-24.7Q73.84-24.45 73.8-24.33 73.75-24.2 73.75-24.15L73.75-24.15Q73.34-23.35 73.09-23.35L73.09-23.35Q72.95-23.35 72.9-23.4L72.9-23.4 72.5-23.75Q72.15-24.4 72.3-24.8L72.3-24.8Q72.3-25.3 72.5-25.5L72.5-25.5Q72.84-25.75 73.09-25.75L73.09-25.75Q73.34-25.75 73.75-25.65ZM79.39-8.7L79.39-8.7Q79.14-8.65 78.99-8.65L78.99-8.65Q78.34-8.65 78.19-8.93 78.04-9.2 78.04-9.8L78.04-9.8Q78.09-10.15 78.44-10.4L78.44-10.4 78.99-10.9Q79.09-10.95 79.29-10.95L79.29-10.95Q79.69-10.95 80.04-10.5 80.39-10.05 80.29-9.5L80.29-9.5Q80.29-9.25 79.94-9L79.94-9Q79.79-8.9 79.64-8.85 79.49-8.8 79.39-8.7ZM80.04-8.1L80.39-8.25Q80.89-8.15 80.97-7.95 81.04-7.75 80.94-7.65L80.94-7.65Q80.64-7 80.09-7L80.09-7Q79.54-7 79.54-7.5L79.54-7.5Q79.84-8.1 80.04-8.1L80.04-8.1ZM88.29-33.1L88.49-33Q88.59-33.1 88.92-33.15 89.24-33.2 89.49-33.2L89.49-33.2Q89.69-33.15 89.82-33.13 89.94-33.1 90.04-33.1L90.04-33.1Q90.29-33.1 90.42-33.15 90.54-33.2 90.69-33.3L90.69-33.3Q91.29-33.3 91.49-33.4L91.49-33.4Q91.54-33.45 91.69-33.45L91.69-33.45Q91.94-33.45 92.17-33.25 92.39-33.05 92.49-32.95L92.49-32.95Q92.59-32.85 92.89-32.75L92.89-32.75Q93.49-32.4 93.64-31.8L93.64-31.8Q93.74-31.5 93.84-31.25 93.94-31 94.04-30.75L94.04-30.75Q94.14-30.7 94.29-30.4L94.29-30.4 94.44-29.95Q94.44-29.85 94.42-29.78 94.39-29.7 94.44-29.6L94.44-29.6Q94.44-29.45 94.34-29.25L94.34-29.25Q94.19-28.6 93.72-28.33 93.24-28.05 92.74-27.8L92.74-27.8Q92.59-27.75 92.29-27.75L92.29-27.75 91.89-27.75Q91.49-27.65 91.44-27.65L91.44-27.65Q91.34-27.65 91.29-27.68 91.24-27.7 91.19-27.7L91.19-27.7Q90.99-27.85 90.64-27.85L90.64-27.85Q90.49-27.85 90.29-27.75L90.29-27.75Q90.09-27.5 90.09-26.85L90.09-26.85Q90.09-26.55 90.04-26.45L90.04-26.45Q89.79-25.8 89.79-25.38 89.79-24.95 89.79-24.55L89.79-24.55Q89.79-24.45 89.82-24.3 89.84-24.15 89.89-23.9L89.89-23.9 89.89-23.4Q89.89-23 89.94-22.8L89.94-22.8Q89.94-22.3 89.99-22.1L89.99-22.1Q89.99-21.95 89.99-21.78 89.99-21.6 90.04-21.4L90.04-21.4Q90.14-21 90.17-20.65 90.19-20.3 90.09-19.7L90.09-19.7 90.09-19.25Q90.04-19.15 90.04-18.8L90.04-18.8Q90.14-18.45 90.04-18.05L90.04-18.05Q89.99-17.65 90.04-17.2L90.04-17.2Q90.04-17.1 90.04-17 90.04-16.9 90.09-16.8L90.09-16.8Q90.14-16.6 90.14-16.3L90.14-16.3Q90.14-15.9 90.04-15.63 89.94-15.35 89.84-15.25L89.84-15.25Q89.74-15.15 89.79-14.98 89.84-14.8 89.94-14.7L89.94-14.7Q90.19-14.55 90.34-14.15L90.34-14.15Q90.39-14.05 90.39-13.98 90.39-13.9 90.44-13.8L90.44-13.8Q90.64-13.55 90.59-13.5L90.59-13.5Q90.69-13.2 90.64-13L90.64-13Q90.59-12.9 90.69-12.65L90.69-12.65Q90.44-12.05 90.59-11.55L90.59-11.55Q90.29-11.15 90.49-10.7L90.49-10.7Q90.09-10.1 90.19-9.25L90.19-9.25Q90.19-8.3 89.94-7.75L89.94-7.75Q89.94-7.55 89.92-7.38 89.89-7.2 89.89-6.95L89.89-6.95Q89.84-6.55 89.64-6.1L89.64-6.1Q89.54-6 89.49-5.9 89.44-5.8 89.34-5.7L89.34-5.7 89.19-5.2Q88.79-4.8 88.69-4.55L88.69-4.55Q88.64-4.45 88.59-4.35 88.54-4.25 88.44-4.15L88.44-4.15Q87.89-3.8 87.59-3.35L87.59-3.35Q87.39-3.15 86.99-2.85L86.99-2.85Q86.84-2.75 86.67-2.63 86.49-2.5 86.34-2.35L86.34-2.35Q86.09-2.3 85.94-2.25 85.79-2.2 85.64-2.1L85.64-2.1Q85.44-2 85.27-1.98 85.09-1.95 84.84-1.95L84.84-1.95Q83.89-1.45 83.09-1.4L83.09-1.4Q82.84-1.3 82.62-1.2 82.39-1.1 82.14-1.1L82.14-1.1Q81.69-1.1 81.44-1.3L81.44-1.3Q80.89-1.3 80.94-1.35L80.94-1.35Q80.69-1.25 80.52-1.2 80.34-1.15 80.09-1.15L80.09-1.15Q79.89-1.15 79.67-1.2 79.44-1.25 79.19-1.3L79.19-1.3 78.94-1.3Q78.24-1.55 77.77-1.73 77.29-1.9 76.89-2.15L76.89-2.15Q76.49-2.65 76.29-2.7L76.29-2.7Q76.09-2.85 75.99-3.05 75.89-3.25 75.79-3.5L75.79-3.5Q75.69-3.75 75.59-3.93 75.49-4.1 75.39-4.35L75.39-4.35Q75.19-4.6 75.07-4.75 74.94-4.9 74.89-5L74.89-5Q74.84-5.2 74.64-5.3L74.64-5.3 73.79-6.85Q73.59-7.1 73.54-7.55L73.54-7.55Q73.44-7.85 73.37-8.13 73.29-8.4 73.39-8.65L73.39-8.65Q73.29-9.65 73.39-10.1L73.39-10.1Q73.44-10.35 73.44-10.58 73.44-10.8 73.44-11.05L73.44-11.05Q73.54-11.35 73.49-11.5L73.49-11.5Q73.49-11.85 73.59-12L73.59-12Q73.99-12.3 74.04-12.4L74.04-12.4Q74.09-12.55 74.17-12.68 74.24-12.8 74.34-12.9L74.34-12.9Q74.89-13.4 74.89-13.6L74.89-13.6Q74.94-13.8 75.19-13.9L75.19-13.9Q75.49-14.55 75.74-14.65L75.74-14.65Q76.04-14.95 76.19-15.15L76.19-15.15Q76.44-15.3 76.67-15.43 76.89-15.55 77.14-15.7L77.14-15.7 78.04-16.15Q78.24-16.2 78.44-16.25 78.64-16.3 78.89-16.3L78.89-16.3Q79.09-16.35 79.29-16.4 79.49-16.45 79.74-16.5L79.74-16.5Q79.94-16.35 80.09-16.32 80.24-16.3 80.39-16.3L80.39-16.3Q80.54-16.35 80.89-16.35L80.89-16.35 81.09-16.35Q81.69-16.1 81.89-16.1L81.89-16.1Q82.09-16 82.29-16L82.29-16Q82.99-15.35 83.04-14.05L83.04-14.05Q83.24-13.75 83.24-13.4L83.24-13.4Q83.14-13.15 82.94-12.68 82.74-12.2 82.49-12.1L82.49-12.1Q82.34-12.05 82.19-11.9 82.04-11.75 81.94-11.65L81.94-11.65Q81.89-11.55 81.82-11.53 81.74-11.5 81.64-11.45L81.64-11.45Q81.44-11.5 81.24-11.5L81.24-11.5Q81.09-11.6 81.04-11.58 80.99-11.55 80.89-11.55L80.89-11.55Q80.44-11.55 80.24-11.85L80.24-11.85Q79.79-12 79.64-12.25L79.64-12.25 79.04-12.6Q78.64-12.4 78.54-12.3L78.54-12.3Q78.24-12.1 77.99-11.95L77.99-11.95 77.54-11.25Q77.34-10.9 77.29-10.35L77.29-10.35Q76.99-9.9 77.04-9.25 77.09-8.6 77.14-8.1L77.14-8.1Q77.54-7.45 78.29-6.95L78.29-6.95Q78.34-6.7 78.54-6.6L78.54-6.6Q78.79-6.35 78.97-6.23 79.14-6.1 79.29-5.95L79.29-5.95 79.69-5.8Q80.24-5.55 80.49-5.55L80.49-5.55Q80.59-5.5 80.69-5.43 80.79-5.35 80.89-5.25L80.89-5.25 81.74-5.25Q82.19-5.25 82.54-5.55L82.54-5.55Q82.69-5.7 82.84-5.75L82.84-5.75Q83.34-6.2 83.62-6.45 83.89-6.7 84.04-6.85L84.04-6.85 84.69-7.45Q84.74-7.55 84.77-7.63 84.79-7.7 84.84-7.8L84.84-7.8Q84.84-8.05 84.99-8.1L84.99-8.1 84.99-8.35 85.29-9.35Q85.39-9.6 85.39-9.8 85.39-10 85.39-10.25L85.39-10.25Q85.34-10.7 85.54-11L85.54-11Q85.64-11.4 85.72-11.63 85.79-11.85 85.89-12L85.89-12Q86.09-12.45 86.09-13.05L86.09-13.05Q85.99-13.3 86.09-13.45L86.09-13.45Q86.24-13.9 86.19-14L86.19-14Q86.29-14.6 86.24-14.6L86.24-14.6 86.24-15.15Q86.19-15.55 86.22-15.8 86.24-16.05 86.34-16.3L86.34-16.3Q86.44-16.8 86.59-17.28 86.74-17.75 87.09-18.25L87.09-18.25 87.09-19.15Q86.99-19.3 87.09-19.55L87.09-19.55Q86.89-19.95 86.89-20.35L86.89-20.35Q86.79-20.75 86.69-20.85L86.69-20.85Q86.64-21.35 86.44-21.9L86.44-21.9Q86.34-22.15 86.29-22.38 86.24-22.6 86.19-22.85L86.19-22.85Q86.24-23.15 86.24-23.35 86.24-23.55 86.24-23.65L86.24-23.65Q86.29-23.75 86.29-23.88 86.29-24 86.34-24.1L86.34-24.1Q86.24-24.35 86.34-24.45L86.34-24.45Q86.39-25.25 86.49-25.55L86.49-25.55Q86.54-25.75 86.44-26.2L86.44-26.2Q86.54-26.85 86.34-27.1L86.34-27.1Q86.19-27.5 86.24-27.85L86.24-27.85Q85.74-28.1 85.64-28.1L85.64-28.1Q85.44-28.05 85.04-28.05L85.04-28.05Q84.84-28.15 84.89-28.35L84.89-28.35Q84.64-28.5 84.57-28.53 84.49-28.55 84.44-28.55L84.44-28.55Q84.14-28.55 83.99-28.8L83.99-28.8Q83.84-28.8 83.64-28.7L83.64-28.7Q83.44-28.6 83.14-28.6L83.14-28.6Q82.59-28.6 82.44-29.05L82.44-29.05Q81.94-29.8 81.79-30.2L81.79-30.2Q81.69-30.55 81.34-31.05L81.34-31.05Q81.29-31.2 81.29-31.6L81.29-31.6Q81.24-31.7 81.24-31.83 81.24-31.95 81.19-32.15L81.19-32.15Q81.29-32.6 81.49-32.75L81.49-32.75Q81.69-32.95 81.69-33.15L81.69-33.15Q82.09-33.45 82.44-33.73 82.79-34 83.29-34.15L83.29-34.15Q83.59-34.25 83.64-34.25L83.64-34.25 84.04-34.25Q84.19-34.25 84.39-34.15L84.39-34.15Q84.89-34.15 85.24-33.9L85.24-33.9Q85.34-33.85 85.42-33.77 85.49-33.7 85.59-33.6L85.59-33.6Q85.64-33.35 85.84-33.15L85.84-33.15Q85.94-33.05 86.19-32.9 86.44-32.75 86.54-32.75L86.54-32.75Q86.84-32.75 87.19-32.95L87.19-32.95Q87.34-32.95 87.44-32.98 87.54-33 87.64-33L87.64-33Q87.99-33.1 88.09-33.08 88.19-33.05 88.29-33.1L88.29-33.1ZM80.64-29.2L80.94-29.35 81.24-29.35Q81.84-28.95 81.89-28.9L81.89-28.9 81.99-28.75Q82.09-28.5 82.04-28.23 81.99-27.95 81.89-27.7L81.89-27.7Q81.59-27.4 81.14-27.4L81.14-27.4Q80.69-27.4 80.34-27.75L80.34-27.75Q80.04-28.25 80.24-28.75L80.24-28.75Q80.39-29.1 80.64-29.2L80.64-29.2ZM83.24-26.2L83.24-26.2Q82.74-25.95 82.54-25.95L82.54-25.95Q81.99-26.25 81.99-26.8L81.99-26.8Q82.19-27 82.49-27L82.49-27Q82.79-27 83.02-26.78 83.24-26.55 83.24-26.2ZM91.34-26.15L91.34-26.15Q91.74-26.45 91.74-26.45L91.74-26.45 92.54-26.25Q92.59-26.15 92.64-26.1 92.69-26.05 92.74-25.95L92.74-25.95Q92.84-25.85 92.84-25.63 92.84-25.4 92.74-25.3L92.74-25.3 92.59-25Q92.34-24.85 92.29-24.8L92.29-24.8Q91.79-24.9 91.67-25.05 91.54-25.2 91.44-25.35L91.44-25.35Q91.34-25.6 91.34-26.15ZM102.49-7.9L102.09-7.55Q101.99-7.55 101.94-7.53 101.89-7.5 101.79-7.5L101.79-7.5Q101.49-7.5 101.39-7.75L101.39-7.75Q101.04-8.1 100.84-8.1L100.84-8.1Q100.64-8.4 100.59-8.65L100.59-8.65Q100.59-8.95 100.44-9.15L100.44-9.15Q100.39-9.3 100.49-9.5L100.49-9.5Q100.64-9.8 100.79-9.88 100.94-9.95 101.09-9.95L101.09-9.95Q101.89-9.95 102.34-9.4L102.34-9.4Q102.39-9.25 102.42-9.08 102.44-8.9 102.54-8.65L102.54-8.65Q102.64-8.15 102.49-7.9L102.49-7.9ZM107.89-0.8L107.89-0.8Q107.44-0.7 107.29-0.5L107.29-0.5Q106.99-0.3 106.59-0.3L106.59-0.3Q106.39-0.15 106.04-0.05L106.04-0.05Q105.89 0 105.77 0.05 105.64 0.1 105.49 0.2L105.49 0.2 105.39 0.2Q105.19 0.2 105.09 0.25L105.09 0.25Q104.89 0.4 104.64 0.43 104.39 0.45 104.14 0.5L104.14 0.5 103.59 0.65Q103.24 0.75 102.74 0.75L102.74 0.75Q102.54 0.7 102.37 0.7 102.19 0.7 102.04 0.7L102.04 0.7Q101.34 0.45 101.09 0.35 100.84 0.25 100.59 0L100.59 0Q99.79-0.3 99.34-0.85L99.34-0.85Q99.09-1.1 98.79-1.33 98.49-1.55 98.19-1.8L98.19-1.8Q97.74-1.95 97.62-2.02 97.49-2.1 97.39-2.15L97.39-2.15Q97.24-2.15 97.14-2.4L97.14-2.4Q96.99-2.4 96.79-2.7L96.79-2.7Q96.59-2.95 96.39-3.1L96.39-3.1Q96.39-3.5 96.14-3.6L96.14-3.6Q95.94-3.8 95.99-4.1L95.99-4.1Q95.84-4.2 95.74-4.55L95.74-4.55Q95.64-4.65 95.52-4.83 95.39-5 95.49-5.1L95.49-5.1Q95.49-5.7 95.29-6.2L95.29-6.2Q95.19-6.35 95.19-6.55 95.19-6.75 95.19-7L95.19-7Q95.14-7.45 95.06-7.75 94.99-8.05 94.89-8.2L94.89-8.2Q94.69-8.5 94.74-8.95L94.74-8.95Q94.64-9.35 94.59-9.53 94.54-9.7 94.64-9.95L94.64-9.95Q94.54-10.1 94.64-10.45L94.64-10.45 94.64-10.95Q94.59-11.55 94.64-12.15L94.64-12.15Q94.54-12.35 94.59-12.55L94.59-12.55Q94.64-12.8 94.64-12.98 94.64-13.15 94.64-13.4L94.64-13.4Q94.59-13.5 94.62-13.6 94.64-13.7 94.64-13.8L94.64-13.8Q94.64-14.55 94.79-15.15L94.79-15.15Q94.89-15.25 94.97-15.4 95.04-15.55 95.09-15.75L95.09-15.75Q95.19-16.05 95.29-16.25L95.29-16.25Q95.49-16.85 95.49-17.45L95.49-17.45Q95.49-17.95 95.74-18.35L95.74-18.35Q95.69-18.55 95.79-18.75L95.79-18.75Q95.94-18.9 95.84-19.15L95.84-19.15Q95.99-19.6 95.99-19.7L95.99-19.7Q95.99-20.35 95.92-20.85 95.84-21.35 95.74-21.85L95.74-21.85Q95.44-22.7 95.14-23.05L95.14-23.05Q94.79-23.35 94.69-24.05L94.69-24.05Q94.39-24.75 94.49-25.85L94.49-25.85Q94.29-28.1 94.84-28.5L94.84-28.5Q95.24-28.9 95.34-29.05L95.34-29.05Q95.44-29.3 95.64-29.25L95.64-29.25Q96.19-29.75 96.84-29.75L96.84-29.75Q97.19-29.75 97.39-29.6L97.39-29.6Q97.49-29.7 97.69-29.7L97.69-29.7Q97.89-29.7 97.94-29.65L97.94-29.65Q98.04-29.55 98.14-29.55L98.14-29.55Q98.19-29.55 98.22-29.58 98.24-29.6 98.29-29.6L98.29-29.6Q98.54-29.5 98.69-29.43 98.84-29.35 98.89-29.3L98.89-29.3Q99.49-28.6 99.74-28.5L99.74-28.5Q99.84-28.35 99.92-28.23 99.99-28.1 99.99-27.9L99.99-27.9Q100.04-27.4 100.19-27.35L100.19-27.35Q100.29-27.1 100.29-26.9 100.29-26.7 100.29-26.5L100.29-26.5Q100.24-26.05 100.29-25.9L100.29-25.9Q100.34-25.65 100.39-25.3 100.44-24.95 100.34-24.7L100.34-24.7Q100.44-24.35 100.44-24.35L100.44-24.35 100.44-24.15Q100.44-23.8 100.39-23.65L100.39-23.65Q100.34-23.4 100.34-23.1L100.34-23.1Q100.44-22.65 100.34-22.5L100.34-22.5Q100.29-22.35 100.29-22.15L100.29-22.15Q100.19-21.6 100.04-21.18 99.89-20.75 99.59-20.35L99.59-20.35Q99.49-20.25 99.31-20 99.14-19.75 99.24-19.5L99.24-19.5Q99.19-19.35 99.17-19.07 99.14-18.8 99.14-18.65L99.14-18.65Q99.09-18.5 98.99-18.23 98.89-17.95 98.74-17.7L98.74-17.7Q98.59-17.45 98.49-17.23 98.39-17 98.39-16.65L98.39-16.65Q98.39-16.35 98.42-15.98 98.44-15.6 98.59-15.15L98.59-15.15Q98.74-14.65 98.49-14.1L98.49-14.1Q98.24-13.5 98.37-13.1 98.49-12.7 98.59-12.4L98.59-12.4Q98.54-12.15 98.56-11.95 98.59-11.75 98.59-11.55L98.59-11.55Q98.64-11.3 98.69-11.1 98.74-10.9 98.79-10.65L98.79-10.65Q98.84-10.4 98.87-10.25 98.89-10.1 98.89-10L98.89-10Q99.14-7.9 100.04-7.4L100.04-7.4Q100.44-6.95 100.54-6.9L100.54-6.9Q100.69-6.8 100.87-6.7 101.04-6.6 101.19-6.4L101.19-6.4Q101.29-6.3 101.39-6.2 101.49-6.1 101.59-6.05L101.59-6.05Q101.84-6 101.99-5.8L101.99-5.8Q102.19-5.7 102.44-5.7L102.44-5.7Q102.69-5.8 102.84-5.85 102.99-5.9 103.14-5.9L103.14-5.9Q103.44-5.9 103.69-5.95L103.69-5.95 103.94-5.95Q104.24-5.95 104.34-6L104.34-6Q104.59-6.1 104.84-6.18 105.09-6.25 105.39-6.3L105.39-6.3Q105.74-6.3 105.94-6.25L105.94-6.25Q106.19-6.4 106.39-6.53 106.59-6.65 106.79-6.65L106.79-6.65Q107.34-6.8 107.54-7.1L107.54-7.1Q107.69-7.4 107.99-7.6L107.99-7.6Q108.09-7.85 108.19-7.95L108.19-7.95Q108.39-8.5 108.49-8.85 108.59-9.2 108.69-9.45L108.69-9.45Q108.94-9.7 109.02-10.05 109.09-10.4 109.09-10.65L109.09-10.65Q109.24-10.9 109.27-11.25 109.29-11.6 109.29-12L109.29-12Q109.24-12.5 109.14-12.73 109.04-12.95 108.89-13.1L108.89-13.1Q108.84-13.5 108.94-13.78 109.04-14.05 109.14-14.3L109.14-14.3Q109.34-14.6 109.39-14.8L109.39-14.8Q109.54-15.05 109.54-15.4L109.54-15.4Q109.54-15.55 109.56-15.73 109.59-15.9 109.69-16L109.69-16Q109.74-16.2 109.77-16.32 109.79-16.45 109.74-16.6L109.74-16.6Q109.69-16.85 109.74-17.05L109.74-17.05Q109.74-17.45 109.69-17.5L109.69-17.5Q109.84-18.25 109.69-18.75L109.69-18.75Q109.64-19 109.64-19.2 109.64-19.4 109.64-19.55L109.64-19.55Q109.64-19.65 109.62-19.75 109.59-19.85 109.64-20L109.64-20Q109.64-20.05 109.54-20.45L109.54-20.45Q109.39-20.65 109.44-20.85L109.44-20.85Q109.44-21.1 109.39-21.3L109.39-21.3Q109.39-21.6 109.44-21.65L109.44-21.65Q109.59-22.1 109.54-22.25L109.54-22.25Q109.39-22.45 109.49-22.65L109.49-22.65Q109.34-23.2 109.27-23.45 109.19-23.7 109.09-23.9L109.09-23.9Q108.84-24 108.62-24.18 108.39-24.35 108.39-24.65L108.39-24.65Q108.29-24.9 108.09-25.18 107.89-25.45 107.79-25.85L107.79-25.85Q107.69-26.1 107.67-26.43 107.64-26.75 107.74-27L107.74-27Q107.59-27.35 107.79-27.65L107.79-27.65Q107.89-28.2 108.29-28.4L108.29-28.4Q108.64-28.85 108.64-28.8L108.64-28.8Q108.74-28.9 108.87-29 108.99-29.1 109.09-29.3L109.09-29.3Q109.29-29.55 109.59-29.7 109.89-29.85 109.99-29.9L109.99-29.9Q110.09-29.9 110.27-29.93 110.44-29.95 110.59-29.95L110.59-29.95Q111.04-29.9 111.29-29.9 111.54-29.9 111.79-29.8L111.79-29.8Q112.04-29.7 112.24-29.63 112.44-29.55 112.69-29.45L112.69-29.45Q112.84-29.15 112.97-28.9 113.09-28.65 113.29-28.4L113.29-28.4Q113.54-27.9 113.34-27.35L113.34-27.35Q113.44-27 113.47-26.88 113.49-26.75 113.54-26.6L113.54-26.6 113.59-25.75Q113.49-25.35 113.54-25.1L113.54-25.1Q113.64-24.85 113.54-24.75L113.54-24.75Q113.49-24.35 113.52-24.18 113.54-24 113.59-23.85L113.59-23.85Q113.69-23.55 113.69-23.1 113.69-22.65 113.64-22.15L113.64-22.15Q113.59-21.85 113.59-21.6 113.59-21.35 113.59-21.1L113.59-21.1Q113.59-20.8 113.62-20.48 113.64-20.15 113.69-19.8L113.69-19.8Q113.69-19.45 113.69-19.15 113.69-18.85 113.74-18.6L113.74-18.6Q113.79-18.5 113.81-18.38 113.84-18.25 113.74-18.1L113.74-18.1Q113.74-17.7 113.79-17.45L113.79-17.45Q113.79-17.2 113.69-16.8L113.69-16.8Q113.79-16 113.64-15.45L113.64-15.45Q113.59-15.2 113.54-14.88 113.49-14.55 113.39-14.2L113.39-14.2Q113.49-13.95 113.47-13.7 113.44-13.45 113.34-13.3L113.34-13.3Q113.34-12.9 113.37-12.55 113.39-12.2 113.39-11.8L113.39-11.8 113.39-10.25Q113.39-10.1 113.49-9.8L113.49-9.8Q113.54-9.7 113.54-9.6 113.54-9.5 113.54-9.4L113.54-9.4Q113.49-9.1 113.47-8.9 113.44-8.7 113.49-8.55L113.49-8.55Q113.49-8.3 113.44-8.15L113.44-8.15Q113.34-7.45 113.24-6.9L113.24-6.9Q113.04-6.5 112.87-6.1 112.69-5.7 112.64-5.25L112.64-5.25Q112.39-4.75 111.99-4.3L111.99-4.3Q111.84-4.05 111.69-3.85 111.54-3.65 111.34-3.4L111.34-3.4Q111.14-3.3 110.99-3.13 110.84-2.95 110.69-2.8L110.69-2.8Q110.54-2.65 110.34-2.5 110.14-2.35 109.94-2.25L109.94-2.25Q109.74-2.15 109.64-2.05 109.54-1.95 109.44-1.85L109.44-1.85Q109.29-1.65 108.97-1.53 108.64-1.4 108.39-1.3L108.39-1.3Q108.04-1.15 107.89-0.8ZM104.84-8.55L104.84-8.55Q105.09-8.2 105.02-7.95 104.94-7.7 104.84-7.5L104.84-7.5Q104.64-7.3 104.49-7.3L104.49-7.3Q104.34-7.3 104.24-7.4L104.24-7.4Q103.99-7.6 103.97-7.73 103.94-7.85 103.94-8L103.94-8Q103.94-8.4 104.09-8.5 104.24-8.6 104.44-8.6L104.44-8.6Q104.69-8.6 104.84-8.55ZM112.34-2.75L112.64-2.8 112.99-2.8Q113.54-2.8 113.69-2.43 113.84-2.05 113.69-1.8L113.69-1.8Q113.59-1.7 113.52-1.58 113.44-1.45 113.34-1.3L113.34-1.3Q113.24-1.2 113.14-1.1 113.04-1 112.89-0.9L112.89-0.9Q112.64-0.65 112.14-0.65L112.14-0.65Q111.64-0.75 111.59-0.9L111.59-0.9Q111.39-1.1 111.34-1.2L111.34-1.2Q111.34-2.2 111.89-2.4L111.89-2.4 112.34-2.75ZM113.94-5.45L113.94-5.45Q114.19-5.55 114.27-5.55 114.34-5.55 114.39-5.55L114.39-5.55Q114.54-5.55 114.64-5.3L114.64-5.3Q114.79-4.75 114.59-4.55 114.39-4.35 114.14-4.2L114.14-4.2Q113.64-4.5 113.79-4.85L113.79-4.85Q113.89-5 113.89-5.15 113.89-5.3 113.94-5.45ZM99.34-30.3L99.34-30.3Q99.04-30.35 98.97-30.58 98.89-30.8 98.99-31.05L98.99-31.05Q99.19-31.4 99.39-31.4L99.39-31.4Q99.54-31.4 99.64-31.3L99.64-31.3Q99.79-31.05 99.89-31.05L99.89-31.05 99.99-30.9Q99.99-30.65 99.74-30.53 99.49-30.4 99.34-30.3ZM101.09-30.5L101.09-30.5Q101.19-30.55 101.44-30.55L101.44-30.55Q101.84-30.55 102.12-30.28 102.39-30 102.54-29.75L102.54-29.75Q102.54-29.4 102.56-29.15 102.59-28.9 102.49-28.6L102.49-28.6Q102.24-28.35 102.09-28.28 101.94-28.2 101.79-28.2L101.79-28.2Q101.49-27.9 101.39-27.9L101.39-27.9 101.14-27.9Q100.89-28.15 100.79-28.4 100.69-28.65 100.69-28.9L100.69-28.9Q100.59-29.45 100.64-29.55L100.64-29.55Q100.74-29.75 100.64-29.9L100.64-29.9Q100.74-30.1 100.84-30.25 100.94-30.4 101.09-30.5ZM116.49-4.35L116.49-4.35Q116.04-4.25 116.04-4.2L116.04-4.2Q115.84-4 115.74-4L115.74-4Q115.29-4 115.19-4.5 115.09-5 115.29-5.25L115.29-5.25Q115.39-6.25 116.19-6.3L116.19-6.3Q116.79-6.25 116.89-5.5L116.89-5.5Q116.89-5.15 116.79-4.83 116.69-4.5 116.49-4.35ZM124.74-7.85L124.74-7.85Q124.69-8.2 124.44-8.35L124.44-8.35Q124.29-8.6 124.29-8.9L124.29-8.9Q124.39-9.75 124.56-10.08 124.74-10.4 125.04-10.4L125.04-10.4Q125.09-10.4 125.11-10.38 125.14-10.35 125.24-10.35L125.24-10.35 125.54-10.05Q126.04-9.55 126.19-9.2L126.19-9.2Q126.24-9.1 126.29-8.97 126.34-8.85 126.44-8.7L126.44-8.7Q126.69-8.1 126.29-7.8L126.29-7.8Q126.09-7.6 125.84-7.6L125.84-7.6Q125.34-7.75 125.09-7.75L125.09-7.75Q124.94-7.75 124.74-7.85ZM129.24-0.85L129.24-0.85Q128.99-0.95 128.54-1.3L128.54-1.3Q128.09-1.55 127.74-1.55L127.74-1.55Q127.24-1.55 127.09-1.63 126.94-1.7 126.69-1.8L126.69-1.8Q126.59-1.75 126.39-1.75L126.39-1.75Q126.19-1.75 126.09-1.8L126.09-1.8Q125.84-1.85 125.54-1.95L125.54-1.95Q125.24-1.95 124.96-1.93 124.69-1.9 124.44-1.8L124.44-1.8 123.34-1.35Q122.99-1.2 122.69-1.07 122.39-0.95 122.04-0.9L122.04-0.9Q121.84-0.7 121.19-0.7L121.19-0.7Q120.94-0.7 120.76-0.68 120.59-0.65 120.39-0.6L120.39-0.6Q119.79-0.7 119.54-0.75 119.29-0.8 119.09-0.9L119.09-0.9 118.44-1.2Q118.04-1.85 117.91-2.1 117.79-2.35 117.89-2.7L117.89-2.7Q117.79-3.45 117.99-3.65L117.99-3.65Q118.19-3.85 118.24-4.05L118.24-4.05 118.39-4.45Q118.44-4.55 118.46-4.63 118.49-4.7 118.54-4.8L118.54-4.8Q118.44-5.25 118.64-5.55L118.64-5.55Q118.84-5.9 118.64-6.35L118.64-6.35Q118.54-6.95 118.74-7.25L118.74-7.25Q118.34-8 118.64-8.3L118.64-8.3Q118.99-8.65 119.04-9.05L119.04-9.05Q119.29-9.4 119.39-9.63 119.49-9.85 119.64-10.1L119.64-10.1Q119.64-10.35 119.69-10.6 119.74-10.85 119.64-11.2L119.64-11.2Q119.59-11.45 119.44-11.55L119.44-11.55Q119.19-12.2 119.34-12.55L119.34-12.55Q119.44-13.05 119.44-13.25L119.44-13.25 119.44-13.5Q119.44-13.8 119.39-13.98 119.34-14.15 119.34-14.4L119.34-14.4 119.04-15.35Q118.94-15.85 118.84-16.3 118.74-16.75 118.69-17L118.69-17Q118.79-17.15 118.79-17.75L118.79-17.75 118.64-18.95Q118.59-19.3 118.56-19.58 118.54-19.85 118.49-20.15L118.49-20.15Q118.49-20.8 118.54-20.9L118.54-20.9Q118.39-21.65 118.59-22.55L118.59-22.55Q118.69-22.95 118.74-23.38 118.79-23.8 118.84-24.3L118.84-24.3Q118.74-24.75 118.79-24.8L118.79-24.8Q118.64-25.25 118.59-25.8 118.54-26.35 118.54-26.85L118.54-26.85Q118.44-27.05 118.44-27.25L118.44-27.25Q118.44-27.4 118.34-27.6L118.34-27.6Q118.44-28 118.44-28.18 118.44-28.35 118.54-28.5L118.54-28.5Q118.74-28.7 118.69-29.05L118.69-29.05 119.04-29.6Q119.14-29.85 119.26-30.05 119.39-30.25 119.49-30.35L119.49-30.35Q119.69-30.5 119.89-30.9L119.89-30.9Q120.14-31 120.34-31.1 120.54-31.2 120.74-31.35L120.74-31.35Q120.99-31.3 121.49-31.3L121.49-31.3Q121.79-31.6 121.99-31.6L121.99-31.6Q122.09-31.6 122.14-31.55L122.14-31.55Q122.29-31.35 122.51-31.2 122.74-31.05 122.84-31.05L122.84-31.05Q123.14-30.6 123.34-30.33 123.54-30.05 123.69-29.8L123.69-29.8Q124.19-29 124.36-28.53 124.54-28.05 124.44-27.6L124.44-27.6Q124.54-27.35 124.61-27.05 124.69-26.75 124.59-26.5L124.59-26.5Q124.74-25.65 124.56-24.95 124.39-24.25 124.04-23.65L124.04-23.65Q123.89-23.35 123.74-22.78 123.59-22.2 123.59-21.85L123.59-21.85 123.59-21.4Q123.54-21.15 123.54-20.6L123.54-20.6Q123.49-20.35 123.49-20.15 123.49-19.95 123.49-19.75L123.49-19.75Q123.44-19.4 123.49-19.35L123.49-19.35Q123.49-19.05 123.44-18.43 123.39-17.8 123.29-17.1L123.29-17.1Q123.19-16.4 123.14-15.73 123.09-15.05 122.99-14.75L122.99-14.75Q123.09-14.15 123.01-13.53 122.94-12.9 122.84-12.35L122.84-12.35Q122.89-12.25 122.91-12.05 122.94-11.85 122.84-11.75L122.84-11.75Q122.94-11.55 123.04-11.05L123.04-11.05 123.04-10.3Q123.09-10.15 123.19-9.95L123.19-9.95Q123.24-9.85 123.14-9.55L123.14-9.55Q123.04-9.3 123.14-9.1L123.14-9.1Q123.19-8.9 123.04-8.75L123.04-8.75Q123.09-8.65 123.19-8.25L123.19-8.25Q123.19-8.05 123.29-7.65L123.29-7.65Q123.49-7.35 123.54-7.25 123.59-7.15 123.64-7.05L123.64-7.05Q123.89-6.7 124.19-6.4 124.49-6.1 124.84-6L124.84-6 125.24-6Q125.79-6 125.99-6.05L125.99-6.05Q126.14-6.1 126.39-6.1L126.39-6.1Q126.79-6.1 127.24-5.95L127.24-5.95Q127.39-5.9 127.59-5.9L127.59-5.9Q127.79-5.9 128.09-5.95 128.39-6 128.59-6.1L128.59-6.1Q128.69-6.1 128.84-6.15 128.99-6.2 129.14-6.2L129.14-6.2Q129.54-6.25 129.71-6.25 129.89-6.25 130.04-6.3L130.04-6.3Q130.14-6.35 130.34-6.35L130.34-6.35Q130.54-6.35 130.64-6.3L130.64-6.3Q131.19-5.95 131.84-5.95L131.84-5.95Q132.19-5.95 132.34-6.1L132.34-6.1Q132.39-6.3 132.74-6.4L132.74-6.4Q132.99-6.4 133.14-6.55L133.14-6.55Q133.19-6.6 133.29-6.6L133.29-6.6Q133.59-6.6 133.79-6.4L133.79-6.4Q134.19-5.95 134.39-5.7 134.59-5.45 134.69-5.35L134.69-5.35Q134.79-5.25 134.89-5.15 134.99-5.05 135.09-4.95L135.09-4.95Q135.24-4.4 135.14-3.85L135.14-3.85Q135.09-3.6 135.06-3.38 135.04-3.15 135.04-2.9L135.04-2.9Q134.84-2.7 134.84-2.55L134.84-2.55Q134.74-2.3 134.59-2.2L134.59-2.2Q134.24-1.8 134.29-1.8L134.29-1.8 134.29-1.65Q134.04-1.45 133.86-1.3 133.69-1.15 133.49-1L133.49-1Q133.29-0.9 133.11-0.78 132.94-0.65 132.79-0.5L132.79-0.5Q132.54-0.45 132.44-0.45 132.34-0.45 132.29-0.45L132.29-0.45Q131.64-0.3 131.44-0.3L131.44-0.3Q131.19-0.3 131.01-0.35 130.84-0.4 130.59-0.5L130.59-0.5Q129.74-0.85 129.24-0.85ZM127.94-10.1L127.94-10.1Q128.19-10.1 128.41-10 128.64-9.9 128.69-9.65L128.69-9.65Q128.69-9.4 128.54-9.15 128.39-8.9 128.14-8.9L128.14-8.9Q127.94-8.9 127.84-8.95L127.84-8.95 127.59-9.45Q127.44-9.85 127.56-9.93 127.69-10 127.94-10.1Z" opacity="1" transform="matrix(1,0,0,1,0,0)" fill="#e33e33" class="wordmark-text-0" data-fill-palette-color="primary" id="text-0"></path></svg></g></svg></g><g transform="matrix(1,0,0,1,0,79.73697126632183)"><svg viewBox="0 0 244.43135999999998 9.557971715578798" height="9.557971715578798" width="244.43135999999998"><g transform="matrix(1,0,0,1,0,0)"><svg width="244.43135999999998" viewBox="1.44 -41.5 1213.6299999999999 47.46" height="9.557971715578798" data-palette-color="#e33e33"><path d="M10.45-16.21L1.44-39.26 5.93-39.26 12.5-20.26 19.04-39.26 23.58-39.26 14.6-16.21 14.6 1.25 10.45 1.25 10.45-16.21ZM37.57-29L37.57-29Q42.28-29 44.89-24.56L44.89-24.56Q47.31-20.46 47.31-13.53L47.31-13.53Q47.31-7.06 45.29-3.05L45.29-3.05Q42.67 2.1 37.5 2.1L37.5 2.1Q32.88 2.1 30.3-2.12L30.3-2.12Q27.76-6.27 27.76-13.55L27.76-13.55Q27.76-20.46 30.15-24.56L30.15-24.56Q32.76-29 37.57-29ZM37.47-25.46L37.47-25.46Q35.01-25.46 33.57-22.53L33.57-22.53Q32.05-19.41 32.05-13.45L32.05-13.45Q32.05-8.08 33.3-5.03L33.3-5.03Q34.74-1.56 37.52-1.56L37.52-1.56Q39.82-1.56 41.21-3.93L41.21-3.93Q43.02-7.01 43.02-13.45L43.02-13.45Q43.02-19.73 41.33-22.83L41.33-22.83Q39.91-25.46 37.47-25.46ZM53.8-9.64L53.8-28.25 57.76-28.25 57.76-10.11Q57.76-1.95 61.27-1.95L61.27-1.95Q62.91-1.95 64.52-3.83L64.52-3.83Q66.3-5.91 67.3-9.45L67.3-9.45 67.3-28.25 71.26-28.25 71.26 1.25 67.45 1.25 67.45-4Q65.08 1.81 60.62 1.81L60.62 1.81Q56.81 1.81 54.88-2.15L54.88-2.15Q53.8-4.32 53.8-9.64L53.8-9.64ZM104.34 1.71L100.48-28.25 104.29-28.25 106.02-10.64Q106.34-7.62 106.58-3.54L106.58-3.54 106.78-3.54Q107.29-8.25 107.73-10.69L107.73-10.69 110.49-25.85 114.52-25.85 117.28-10.69Q117.67-8.57 118.15-4.17L118.15-4.17 118.23-3.54 118.42-3.54Q118.67-7.45 118.98-10.64L118.98-10.64 120.67-28.25 124.53-28.25 120.67 1.71 116.64 1.71 113.42-14.7Q113.22-15.82 112.91-18.41L112.91-18.41 112.66-20.43 112.59-21.04 112.37-21.04 112.27-20.04Q111.83-16.02 111.59-14.7L111.59-14.7 108.39 1.71 104.34 1.71ZM135.19-34.69L135.19-39.99 139.83-39.99 139.83-34.69 135.19-34.69ZM135.49 1.25L135.49-28.25 139.54-28.25 139.54 1.25 135.49 1.25ZM159.95-2.86L159.95-41.5 164-41.5 164-3.39Q164-2.49 164.9-2.49L164.9-2.49 168.49-2.49 168.05 1.25 163.95 1.25Q159.95 1.25 159.95-2.86L159.95-2.86ZM184.94-2.86L184.94-41.5 189-41.5 189-3.39Q189-2.49 189.9-2.49L189.9-2.49 193.49-2.49 193.05 1.25 188.95 1.25Q184.94 1.25 184.94-2.86L184.94-2.86ZM243.87-28.25L246.97-28.25 246.97-6.1Q246.97-2.08 246.14 0.2L246.14 0.2Q245.41 2.2 244.04 3.42L244.04 3.42Q241.19 5.96 236.96 5.96L236.96 5.96Q231.5 5.96 227.81 2.39L227.81 2.39 229.76-0.66Q232.69 2.29 236.94 2.29L236.94 2.29Q240.41 2.29 241.97-0.61L241.97-0.61Q242.97-2.51 242.97-5.44L242.97-5.44 242.97-9.06Q242.29-7.52 240.97-6.54L240.97-6.54Q239.09-5.15 236.96-5.15L236.96-5.15Q232.67-5.15 230.03-8.86L230.03-8.86Q227.76-12.04 227.76-16.89L227.76-16.89Q227.76-21 229.45-24.07L229.45-24.07Q230.67-26.37 232.69-27.66L232.69-27.66Q234.72-28.96 237.09-28.96L237.09-28.96Q240.97-28.96 243.26-25.39L243.26-25.39 243.87-28.25ZM242.97-14.11L242.97-20.09Q241.38-25.29 237.4-25.29L237.4-25.29Q234.87-25.29 233.28-22.8L233.28-22.8Q231.81-20.48 231.81-16.87L231.81-16.87Q231.81-13.75 232.86-11.69L232.86-11.69Q234.4-8.74 237.33-8.74L237.33-8.74Q239.16-8.74 240.77-10.21L240.77-10.21Q242.31-11.62 242.97-14.11L242.97-14.11ZM271.29-14.31L271.29-13.06 257.18-13.06Q257.25-7.93 258.52-5.1L258.52-5.1Q260.06-1.66 263.09-1.66L263.09-1.66Q264.94-1.66 266.53-3.08L266.53-3.08Q267.94-4.32 268.77-6.47L268.77-6.47 271.39-3.76Q268.55 2.1 262.87 2.1L262.87 2.1Q258.1 2.1 255.42-2.56L255.42-2.56Q253.03-6.71 253.03-13.28L253.03-13.28Q253.03-19.85 255.1-23.97L255.1-23.97Q257.64-29.05 262.45-29.05L262.45-29.05Q267.16-29.05 269.46-24.27L269.46-24.27Q271.29-20.46 271.29-14.31L271.29-14.31ZM257.32-16.46L267.06-16.46Q266.97-20.17 266.09-22.31L266.09-22.31Q264.82-25.51 262.3-25.51L262.3-25.51Q260.28-25.51 258.84-22.9L258.84-22.9Q257.52-20.51 257.32-16.46L257.32-16.46ZM284.42-35.25L288.47-37.3 288.47-28.25 295.29-28.25 295.29-24.85 288.47-24.85 288.47-5.91Q288.47-3.42 288.74-2.78L288.74-2.78Q289.23-1.59 290.67-1.59L290.67-1.59Q292.28-1.59 293.82-3L293.82-3 295.11-0.1Q293.04 1.86 290.08 1.86L290.08 1.86Q286.23 1.86 284.98-1.15L284.98-1.15Q284.42-2.51 284.42-5.54L284.42-5.54 284.42-24.85 278.93-24.85 278.93-28.25 284.42-28.25 284.42-35.25ZM327.92-2.2L330.17-5.25Q333.2-1.71 337.15-1.71L337.15-1.71Q342.33-1.71 342.33-6.13L342.33-6.13Q342.33-7.74 340.91-9.4L340.91-9.4Q339.76-10.72 338.42-11.45L338.42-11.45 335.56-12.99Q332.76-14.53 331.24-16.16L331.24-16.16Q329.31-18.26 329.31-21.22L329.31-21.22Q329.31-24.29 331.17-26.42L331.17-26.42Q333.46-29 337.57-29L337.57-29Q342.11-29 345.87-25.49L345.87-25.49 343.96-22.14Q341.28-25.34 337.74-25.34L337.74-25.34Q335.83-25.34 334.64-24.39L334.64-24.39Q333.32-23.36 333.32-21.48L333.32-21.48Q333.32-19.9 334.15-18.73L334.15-18.73Q335.12-17.38 337.27-16.21L337.27-16.21 340.37-14.5Q346.53-11.13 346.53-6.01L346.53-6.01Q346.53-2.95 344.57-0.71L344.57-0.71Q342.18 2.05 337.25 2.05L337.25 2.05Q331.56 2.05 327.92-2.2L327.92-2.2ZM362.54-29L362.54-29Q367.25-29 369.86-24.56L369.86-24.56Q372.28-20.46 372.28-13.53L372.28-13.53Q372.28-7.06 370.25-3.05L370.25-3.05Q367.64 2.1 362.47 2.1L362.47 2.1Q357.85 2.1 355.26-2.12L355.26-2.12Q352.72-6.27 352.72-13.55L352.72-13.55Q352.72-20.46 355.12-24.56L355.12-24.56Q357.73-29 362.54-29ZM362.44-25.46L362.44-25.46Q359.97-25.46 358.53-22.53L358.53-22.53Q357.02-19.41 357.02-13.45L357.02-13.45Q357.02-8.08 358.27-5.03L358.27-5.03Q359.71-1.56 362.49-1.56L362.49-1.56Q364.78-1.56 366.18-3.93L366.18-3.93Q367.98-7.01 367.98-13.45L367.98-13.45Q367.98-19.73 366.3-22.83L366.3-22.83Q364.88-25.46 362.44-25.46ZM376.21-28.25L379.75-28.25 379.75-23.14Q380.99-28.81 384.36-28.81L384.36-28.81Q386.12-28.81 387.17-26.86L387.17-26.86Q388.02-25.32 388.17-22.66L388.17-22.66Q388.68-25.42 390.03-27L390.03-27Q391.56-28.81 393.57-28.81L393.57-28.81Q396.28-28.81 397.55-25.46L397.55-25.46Q398.55-22.83 398.55-18.14L398.55-18.14 398.55 1.25 394.79 1.25 394.79-17.85Q394.79-21.75 394.32-23.54L394.32-23.54Q393.88-25.15 392.81-25.15L392.81-25.15Q391.91-25.15 390.95-23.78L390.95-23.78Q389.27-21.41 389.27-18.04L389.27-18.04 389.27 1.25 385.46 1.25 385.46-18.09Q385.46-21.61 384.97-23.46L384.97-23.46Q384.53-25.15 383.39-25.15L383.39-25.15Q382.58-25.15 381.7-23.88L381.7-23.88Q380.02-21.46 380.02-18.14L380.02-18.14 380.02 1.25 376.21 1.25 376.21-28.25ZM421.27-14.31L421.27-13.06 407.16-13.06Q407.24-7.93 408.5-5.1L408.5-5.1Q410.04-1.66 413.07-1.66L413.07-1.66Q414.93-1.66 416.51-3.08L416.51-3.08Q417.93-4.32 418.76-6.47L418.76-6.47 421.37-3.76Q418.54 2.1 412.85 2.1L412.85 2.1Q408.09 2.1 405.4-2.56L405.4-2.56Q403.01-6.71 403.01-13.28L403.01-13.28Q403.01-19.85 405.09-23.97L405.09-23.97Q407.63-29.05 412.44-29.05L412.44-29.05Q417.15-29.05 419.44-24.27L419.44-24.27Q421.27-20.46 421.27-14.31L421.27-14.31ZM407.31-16.46L417.05-16.46Q416.95-20.17 416.07-22.31L416.07-22.31Q414.8-25.51 412.29-25.51L412.29-25.51Q410.26-25.51 408.82-22.9L408.82-22.9Q407.5-20.51 407.31-16.46L407.31-16.46ZM434.41-35.25L438.46-37.3 438.46-28.25 445.27-28.25 445.27-24.85 438.46-24.85 438.46-5.91Q438.46-3.42 438.73-2.78L438.73-2.78Q439.22-1.59 440.66-1.59L440.66-1.59Q442.27-1.59 443.81-3L443.81-3 445.1-0.1Q443.02 1.86 440.07 1.86L440.07 1.86Q436.21 1.86 434.97-1.15L434.97-1.15Q434.41-2.51 434.41-5.54L434.41-5.54 434.41-24.85 428.91-24.85 428.91-28.25 434.41-28.25 434.41-35.25ZM453.76 1.25L453.76-41.5 457.72-41.5 457.72-23.51Q458.89-26.25 460.97-27.66L460.97-27.66Q462.65-28.81 464.36-28.81L464.36-28.81Q467.19-28.81 469.12-26.32L469.12-26.32Q471.22-23.58 471.22-17.41L471.22-17.41 471.22 1.25 467.26 1.25 467.26-17.21Q467.26-25.05 463.82-25.05L463.82-25.05Q462.21-25.05 460.62-23.29L460.62-23.29Q458.72-21.17 457.72-17.6L457.72-17.6 457.72 1.25 453.76 1.25ZM485.16-34.69L485.16-39.99 489.8-39.99 489.8-34.69 485.16-34.69ZM485.45 1.25L485.45-28.25 489.5-28.25 489.5 1.25 485.45 1.25ZM503.76-28.25L507.57-28.25 507.57-23.24Q508.62-25.66 510.25-27.1L510.25-27.1Q512.23-28.81 514.35-28.81L514.35-28.81Q517.19-28.81 519.12-26.32L519.12-26.32Q521.21-23.58 521.21-17.41L521.21-17.41 521.21 1.25 517.26 1.25 517.26-17.21Q517.26-25.05 513.82-25.05L513.82-25.05Q512.21-25.05 510.62-23.29L510.62-23.29Q508.71-21.17 507.71-17.6L507.71-17.6 507.71 1.25 503.76 1.25 503.76-28.25ZM543.84-28.25L546.94-28.25 546.94-6.1Q546.94-2.08 546.11 0.2L546.11 0.2Q545.38 2.2 544.01 3.42L544.01 3.42Q541.16 5.96 536.93 5.96L536.93 5.96Q531.47 5.96 527.78 2.39L527.78 2.39 529.73-0.66Q532.66 2.29 536.91 2.29L536.91 2.29Q540.38 2.29 541.94-0.61L541.94-0.61Q542.94-2.51 542.94-5.44L542.94-5.44 542.94-9.06Q542.26-7.52 540.94-6.54L540.94-6.54Q539.06-5.15 536.93-5.15L536.93-5.15Q532.64-5.15 530-8.86L530-8.86Q527.73-12.04 527.73-16.89L527.73-16.89Q527.73-21 529.42-24.07L529.42-24.07Q530.64-26.37 532.66-27.66L532.66-27.66Q534.69-28.96 537.06-28.96L537.06-28.96Q540.94-28.96 543.23-25.39L543.23-25.39 543.84-28.25ZM542.94-14.11L542.94-20.09Q541.35-25.29 537.37-25.29L537.37-25.29Q534.84-25.29 533.25-22.8L533.25-22.8Q531.78-20.48 531.78-16.87L531.78-16.87Q531.78-13.75 532.83-11.69L532.83-11.69Q534.37-8.74 537.3-8.74L537.3-8.74Q539.13-8.74 540.74-10.21L540.74-10.21Q542.28-11.62 542.94-14.11L542.94-14.11ZM578.7 1.39L578.7-41.5 582.66-41.5 582.66-23.95Q583.37-25.81 584.56-27.03L584.56-27.03Q586.44-28.96 588.86-28.96L588.86-28.96Q592.35-28.96 594.77-25.05L594.77-25.05Q597.5-20.65 597.5-13.18L597.5-13.18Q597.5-6.59 595.23-2.51L595.23-2.51Q592.69 2.05 588.27 2.05L588.27 2.05Q585.17 2.05 583.37-0.61L583.37-0.61Q582.78-1.49 582.41-2.71L582.41-2.71 581.95 1.39 578.7 1.39ZM582.66-19.09L582.66-7.91Q584.42-1.54 587.91-1.54L587.91-1.54Q590.08-1.54 591.54-4.2L591.54-4.2Q593.3-7.4 593.3-13.11L593.3-13.11Q593.3-19.02 591.59-22.51L591.59-22.51Q590.2-25.37 588.2-25.37L588.2-25.37Q586.59-25.37 585-23.61L585-23.61Q583.41-21.83 582.66-19.09L582.66-19.09ZM621.25-14.31L621.25-13.06 607.14-13.06Q607.22-7.93 608.48-5.1L608.48-5.1Q610.02-1.66 613.05-1.66L613.05-1.66Q614.91-1.66 616.49-3.08L616.49-3.08Q617.91-4.32 618.74-6.47L618.74-6.47 621.35-3.76Q618.52 2.1 612.83 2.1L612.83 2.1Q608.07 2.1 605.38-2.56L605.38-2.56Q602.99-6.71 602.99-13.28L602.99-13.28Q602.99-19.85 605.07-23.97L605.07-23.97Q607.61-29.05 612.42-29.05L612.42-29.05Q617.13-29.05 619.42-24.27L619.42-24.27Q621.25-20.46 621.25-14.31L621.25-14.31ZM607.29-16.46L617.03-16.46Q616.93-20.17 616.05-22.31L616.05-22.31Q614.78-25.51 612.27-25.51L612.27-25.51Q610.24-25.51 608.8-22.9L608.8-22.9Q607.48-20.51 607.29-16.46L607.29-16.46ZM634.39-35.25L638.44-37.3 638.44-28.25 645.25-28.25 645.25-24.85 638.44-24.85 638.44-5.91Q638.44-3.42 638.71-2.78L638.71-2.78Q639.2-1.59 640.64-1.59L640.64-1.59Q642.25-1.59 643.79-3L643.79-3 645.08-0.1Q643 1.86 640.05 1.86L640.05 1.86Q636.19 1.86 634.95-1.15L634.95-1.15Q634.39-2.51 634.39-5.54L634.39-5.54 634.39-24.85 628.89-24.85 628.89-28.25 634.39-28.25 634.39-35.25ZM659.38-35.25L663.44-37.3 663.44-28.25 670.25-28.25 670.25-24.85 663.44-24.85 663.44-5.91Q663.44-3.42 663.7-2.78L663.7-2.78Q664.19-1.59 665.63-1.59L665.63-1.59Q667.24-1.59 668.78-3L668.78-3 670.08-0.1Q668 1.86 665.05 1.86L665.05 1.86Q661.19 1.86 659.94-1.15L659.94-1.15Q659.38-2.51 659.38-5.54L659.38-5.54 659.38-24.85 653.89-24.85 653.89-28.25 659.38-28.25 659.38-35.25ZM696.25-14.31L696.25-13.06 682.13-13.06Q682.21-7.93 683.48-5.1L683.48-5.1Q685.02-1.66 688.04-1.66L688.04-1.66Q689.9-1.66 691.49-3.08L691.49-3.08Q692.9-4.32 693.73-6.47L693.73-6.47 696.34-3.76Q693.51 2.1 687.82 2.1L687.82 2.1Q683.06 2.1 680.38-2.56L680.38-2.56Q677.98-6.71 677.98-13.28L677.98-13.28Q677.98-19.85 680.06-23.97L680.06-23.97Q682.6-29.05 687.41-29.05L687.41-29.05Q692.12-29.05 694.41-24.27L694.41-24.27Q696.25-20.46 696.25-14.31L696.25-14.31ZM682.28-16.46L692.02-16.46Q691.92-20.17 691.05-22.31L691.05-22.31Q689.78-25.51 687.26-25.51L687.26-25.51Q685.24-25.51 683.79-22.9L683.79-22.9Q682.48-20.51 682.28-16.46L682.28-16.46ZM710.84-28.25L710.33-20.09 710.57-20.09Q711.89-25.07 714.97-27.42L714.97-27.42Q717-28.96 719.19-28.96L719.19-28.96Q720.9-28.96 722.34-27.91L722.34-27.91 721.19-23.85Q720.24-24.66 718.95-24.66L718.95-24.66Q716.34-24.66 714.19-21.88L714.19-21.88Q712.28-19.38 711.14-14.89L711.14-14.89 711.14 1.25 707.13 1.25 707.13-28.25 710.84-28.25ZM759.37-35.25L763.43-37.3 763.43-28.25 770.24-28.25 770.24-24.85 763.43-24.85 763.43-5.91Q763.43-3.42 763.69-2.78L763.69-2.78Q764.18-1.59 765.62-1.59L765.62-1.59Q767.23-1.59 768.77-3L768.77-3 770.07-0.1Q767.99 1.86 765.04 1.86L765.04 1.86Q761.18 1.86 759.93-1.15L759.93-1.15Q759.37-2.51 759.37-5.54L759.37-5.54 759.37-24.85 753.88-24.85 753.88-28.25 759.37-28.25 759.37-35.25ZM778.73 1.25L778.73-41.5 782.69-41.5 782.69-23.51Q783.86-26.25 785.93-27.66L785.93-27.66Q787.62-28.81 789.33-28.81L789.33-28.81Q792.16-28.81 794.09-26.32L794.09-26.32Q796.19-23.58 796.19-17.41L796.19-17.41 796.19 1.25 792.23 1.25 792.23-17.21Q792.23-25.05 788.79-25.05L788.79-25.05Q787.18-25.05 785.59-23.29L785.59-23.29Q783.69-21.17 782.69-17.6L782.69-17.6 782.69 1.25 778.73 1.25ZM815.45-17.5L817.35-17.5 817.35-18.85Q817.35-21.85 816.16-23.68L816.16-23.68Q815.08-25.37 811.83-25.37L811.83-25.37Q808.32-25.37 805.56-22.41L805.56-22.41 803.56-25.15Q805.12-26.9 807.24-27.88L807.24-27.88Q809.61-28.96 812-28.96L812-28.96Q817.18-28.96 819.45-25.73L819.45-25.73Q820.72-23.93 821.09-21.63L821.09-21.63Q821.31-20.21 821.31-17.99L821.31-17.99 821.31-7.25Q821.31-1.88 822.45 1.25L822.45 1.25 818.87 1.25Q818.18-0.83 817.86-3.59L817.86-3.59 817.67-3.59Q815.74 2.1 810.1 2.1L810.1 2.1Q806.19 2.1 803.92-0.85L803.92-0.85Q802.12-3.2 802.12-6.71L802.12-6.71Q802.12-12.01 805.83-14.77L805.83-14.77Q809.49-17.5 815.45-17.5L815.45-17.5ZM817.3-11.74L817.3-14.31 815.5-14.31Q806.22-14.31 806.22-6.84L806.22-6.84Q806.22-4.86 807.12-3.42L807.12-3.42Q808.29-1.56 810.34-1.56L810.34-1.56Q813.18-1.56 815.15-4.52L815.15-4.52Q817.3-7.71 817.3-11.74L817.3-11.74ZM828.73-28.25L832.53-28.25 832.53-23.24Q833.58-25.66 835.22-27.1L835.22-27.1Q837.2-28.81 839.32-28.81L839.32-28.81Q842.15-28.81 844.08-26.32L844.08-26.32Q846.18-23.58 846.18-17.41L846.18-17.41 846.18 1.25 842.23 1.25 842.23-17.21Q842.23-25.05 838.78-25.05L838.78-25.05Q837.17-25.05 835.59-23.29L835.59-23.29Q833.68-21.17 832.68-17.6L832.68-17.6 832.68 1.25 828.73 1.25 828.73-28.25ZM879.26 1.71L875.4-28.25 879.21-28.25 880.94-10.64Q881.26-7.62 881.5-3.54L881.5-3.54 881.7-3.54Q882.21-8.25 882.65-10.69L882.65-10.69 885.41-25.85 889.44-25.85 892.2-10.69Q892.59-8.57 893.08-4.17L893.08-4.17 893.15-3.54 893.35-3.54Q893.59-7.45 893.91-10.64L893.91-10.64 895.59-28.25 899.45-28.25 895.59 1.71 891.56 1.71 888.34-14.7Q888.14-15.82 887.83-18.41L887.83-18.41 887.58-20.43 887.51-21.04 887.29-21.04 887.19-20.04Q886.75-16.02 886.51-14.7L886.51-14.7 883.31 1.71 879.26 1.71ZM903.72 1.25L903.72-41.5 907.67-41.5 907.67-23.51Q908.85-26.25 910.92-27.66L910.92-27.66Q912.61-28.81 914.31-28.81L914.31-28.81Q917.15-28.81 919.08-26.32L919.08-26.32Q921.17-23.58 921.17-17.41L921.17-17.41 921.17 1.25 917.22 1.25 917.22-17.21Q917.22-25.05 913.78-25.05L913.78-25.05Q912.17-25.05 910.58-23.29L910.58-23.29Q908.67-21.17 907.67-17.6L907.67-17.6 907.67 1.25 903.72 1.25ZM940.43-17.5L942.34-17.5 942.34-18.85Q942.34-21.85 941.14-23.68L941.14-23.68Q940.07-25.37 936.82-25.37L936.82-25.37Q933.31-25.37 930.55-22.41L930.55-22.41 928.55-25.15Q930.11-26.9 932.23-27.88L932.23-27.88Q934.6-28.96 936.99-28.96L936.99-28.96Q942.17-28.96 944.44-25.73L944.44-25.73Q945.71-23.93 946.07-21.63L946.07-21.63Q946.29-20.21 946.29-17.99L946.29-17.99 946.29-7.25Q946.29-1.88 947.44 1.25L947.44 1.25 943.85 1.25Q943.17-0.83 942.85-3.59L942.85-3.59 942.66-3.59Q940.73 2.1 935.09 2.1L935.09 2.1Q931.18 2.1 928.91-0.85L928.91-0.85Q927.1-3.2 927.1-6.71L927.1-6.71Q927.1-12.01 930.82-14.77L930.82-14.77Q934.48-17.5 940.43-17.5L940.43-17.5ZM942.29-11.74L942.29-14.31 940.48-14.31Q931.21-14.31 931.21-6.84L931.21-6.84Q931.21-4.86 932.11-3.42L932.11-3.42Q933.28-1.56 935.33-1.56L935.33-1.56Q938.16-1.56 940.14-4.52L940.14-4.52Q942.29-7.71 942.29-11.74L942.29-11.74ZM959.35-35.25L963.41-37.3 963.41-28.25 970.22-28.25 970.22-24.85 963.41-24.85 963.41-5.91Q963.41-3.42 963.67-2.78L963.67-2.78Q964.16-1.59 965.6-1.59L965.6-1.59Q967.21-1.59 968.75-3L968.75-3 970.05-0.1Q967.97 1.86 965.02 1.86L965.02 1.86Q961.16 1.86 959.91-1.15L959.91-1.15Q959.35-2.51 959.35-5.54L959.35-5.54 959.35-24.85 953.86-24.85 953.86-28.25 959.35-28.25 959.35-35.25ZM1010.5-3.96L1001.9-28.25 1006.54-28.25 1010.86-14.45Q1011.5-12.4 1012.4-7.96L1012.4-7.96 1012.6-7.96Q1013.28-11.11 1014.3-14.36L1014.3-14.36 1018.75-28.25 1023.36-28.25 1013.06 0.29Q1011.79 3.81 1010.18 4.98L1010.18 4.98Q1008.84 5.96 1006.54 5.96L1006.54 5.96 1004.15 5.96 1003.2 2.2 1005.95 2.2Q1007.88 2.2 1008.66 1.03L1008.66 1.03Q1009.08 0.42 1009.49-0.9L1009.49-0.9 1010.5-3.96ZM1037.47-29L1037.47-29Q1042.18-29 1044.79-24.56L1044.79-24.56Q1047.21-20.46 1047.21-13.53L1047.21-13.53Q1047.21-7.06 1045.19-3.05L1045.19-3.05Q1042.57 2.1 1037.4 2.1L1037.4 2.1Q1032.78 2.1 1030.2-2.12L1030.2-2.12Q1027.66-6.27 1027.66-13.55L1027.66-13.55Q1027.66-20.46 1030.05-24.56L1030.05-24.56Q1032.66-29 1037.47-29ZM1037.37-25.46L1037.37-25.46Q1034.91-25.46 1033.47-22.53L1033.47-22.53Q1031.95-19.41 1031.95-13.45L1031.95-13.45Q1031.95-8.08 1033.2-5.03L1033.2-5.03Q1034.64-1.56 1037.42-1.56L1037.42-1.56Q1039.72-1.56 1041.11-3.93L1041.11-3.93Q1042.92-7.01 1042.92-13.45L1042.92-13.45Q1042.92-19.73 1041.23-22.83L1041.23-22.83Q1039.81-25.46 1037.37-25.46ZM1053.7-9.64L1053.7-28.25 1057.66-28.25 1057.66-10.11Q1057.66-1.95 1061.17-1.95L1061.17-1.95Q1062.81-1.95 1064.42-3.83L1064.42-3.83Q1066.2-5.91 1067.2-9.45L1067.2-9.45 1067.2-28.25 1071.16-28.25 1071.16 1.25 1067.35 1.25 1067.35-4Q1064.98 1.81 1060.52 1.81L1060.52 1.81Q1056.71 1.81 1054.78-2.15L1054.78-2.15Q1053.7-4.32 1053.7-9.64L1053.7-9.64ZM1109.85-2.86L1109.85-41.5 1113.9-41.5 1113.9-3.39Q1113.9-2.49 1114.81-2.49L1114.81-2.49 1118.4-2.49 1117.96 1.25 1113.85 1.25Q1109.85 1.25 1109.85-2.86L1109.85-2.86ZM1137.46-29L1137.46-29Q1142.17-29 1144.78-24.56L1144.78-24.56Q1147.2-20.46 1147.2-13.53L1147.2-13.53Q1147.2-7.06 1145.18-3.05L1145.18-3.05Q1142.56 2.1 1137.39 2.1L1137.39 2.1Q1132.77 2.1 1130.19-2.12L1130.19-2.12Q1127.65-6.27 1127.65-13.55L1127.65-13.55Q1127.65-20.46 1130.04-24.56L1130.04-24.56Q1132.65-29 1137.46-29ZM1137.36-25.46L1137.36-25.46Q1134.9-25.46 1133.46-22.53L1133.46-22.53Q1131.94-19.41 1131.94-13.45L1131.94-13.45Q1131.94-8.08 1133.19-5.03L1133.19-5.03Q1134.63-1.56 1137.41-1.56L1137.41-1.56Q1139.71-1.56 1141.1-3.93L1141.1-3.93Q1142.91-7.01 1142.91-13.45L1142.91-13.45Q1142.91-19.73 1141.22-22.83L1141.22-22.83Q1139.8-25.46 1137.36-25.46ZM1152.84-2.2L1155.09-5.25Q1158.11-1.71 1162.07-1.71L1162.07-1.71Q1167.24-1.71 1167.24-6.13L1167.24-6.13Q1167.24-7.74 1165.83-9.4L1165.83-9.4Q1164.68-10.72 1163.34-11.45L1163.34-11.45 1160.48-12.99Q1157.67-14.53 1156.16-16.16L1156.16-16.16Q1154.23-18.26 1154.23-21.22L1154.23-21.22Q1154.23-24.29 1156.09-26.42L1156.09-26.42Q1158.38-29 1162.48-29L1162.48-29Q1167.02-29 1170.78-25.49L1170.78-25.49 1168.88-22.14Q1166.19-25.34 1162.65-25.34L1162.65-25.34Q1160.75-25.34 1159.55-24.39L1159.55-24.39Q1158.23-23.36 1158.23-21.48L1158.23-21.48Q1158.23-19.9 1159.06-18.73L1159.06-18.73Q1160.04-17.38 1162.19-16.21L1162.19-16.21 1165.29-14.5Q1171.44-11.13 1171.44-6.01L1171.44-6.01Q1171.44-2.95 1169.49-0.71L1169.49-0.71Q1167.1 2.05 1162.17 2.05L1162.17 2.05Q1156.48 2.05 1152.84-2.2L1152.84-2.2ZM1184.33-35.25L1188.38-37.3 1188.38-28.25 1195.19-28.25 1195.19-24.85 1188.38-24.85 1188.38-5.91Q1188.38-3.42 1188.65-2.78L1188.65-2.78Q1189.14-1.59 1190.58-1.59L1190.58-1.59Q1192.19-1.59 1193.73-3L1193.73-3 1195.02-0.1Q1192.95 1.86 1189.99 1.86L1189.99 1.86Q1186.14 1.86 1184.89-1.15L1184.89-1.15Q1184.33-2.51 1184.33-5.54L1184.33-5.54 1184.33-24.85 1178.84-24.85 1178.84-28.25 1184.33-28.25 1184.33-35.25ZM1209.96-40.5L1214.77-40.5 1213.92-8.54 1210.82-8.54 1209.96-40.5ZM1209.62 2.1L1209.62-4.1 1215.07-4.1 1215.07 2.1 1209.62 2.1Z" opacity="1" transform="matrix(1,0,0,1,0,0)" fill="#e33e33" class="slogan-text-1" data-fill-palette-color="secondary" id="text-1"></path></svg></g></svg></g></svg></g></svg></g></svg></g></svg></g></svg></g><path d="M173.493 72.953L173.493 15.043 390.607 15.043 390.607 232.157 173.493 232.157 173.493 174.247 179.31 174.247 179.31 226.34 384.789 226.34 384.789 20.86 179.31 20.86 179.31 72.953Z" fill="#e33e33" stroke="transparent" data-fill-palette-color="tertiary"></path></svg></g><defs></defs></svg><rect width="395.52" height="247.2" fill="none" stroke="none" visibility="hidden"></rect></g></svg></g></svg>